
<svg xml:space="preserve" style="enable-background:new 0 0 1024 1024;" viewBox="0 0 1024 1024" y="0px" x="0px" xmlns:xlink="http://www.w3.org/1999/xlink" xmlns="http://www.w3.org/2000/svg" id="图层_1" version="1.1">
<style type="text/css">
	.st0{fill:none;stroke:#807045;stroke-width:2;}
	.st1{fill:none;stroke:#826E30;stroke-width:2;}
	.st2{fill:none;stroke:#1D2759;stroke-width:2;}
	.st3{fill:none;stroke:#80849C;stroke-width:2;}
	.st4{fill:none;stroke:#7F701D;stroke-width:2;}
	.st5{fill:none;stroke:#FFEBA8;stroke-width:2;}
	.st6{fill:none;stroke:#828287;stroke-width:2;}
	.st7{fill:#000939;}
	.st8{fill:#394579;}
	.st9{fill:#05040F;}
	.st10{fill:#FFFFFF;}
	.st11{fill:#FFD751;}
	.st12{fill:#FED700;}
</style>
<g>
	<g>
		<path d="M248.8,860l-40.6,0.6c-0.9,0-1.6,0.3-2.2,1c-2.4,2.7-3,5.9-1.8,9.5
			c0.6,1.8,2.3,3.1,4.3,3.1c60.9,1.8,122.1,0.6,183.2,0c1.5,0,2.8-0.9,3.4-2.2c1.7-3.8,1.2-7.4-1.5-10.6c-0.6-0.7-1.3-1-2.2-1
			l-37-0.3c-0.3,0-0.6-0.3-0.6-0.7c0-0.2,0.1-0.3,0.2-0.4c11.5-10.9,13.5-23.9,15.3-38.9c0.1-0.9,0.6-1.4,1.6-1.4l161.8,0
			c1.1,0,1.7,0.5,1.8,1.6l0.7,6.6c0.1,0.9-0.3,1.4-1.3,1.4c-15.3-0.5-36.7,4.4-44.3,18.9c-3.4,6.5-7.5,27.4,6,27.4
			c98.1-0.1,196.4-0.1,294.8-0.1c2.2,0,4-1.8,4-4.1c0-0.2,0-0.4,0-0.6l-1-7c-0.2-1.1-1.1-1.9-2.2-1.9l-26.5-0.3
			c-0.8,0-1.3-0.4-1.4-1.3l-3.9-39c-0.1-0.8,0.5-1.6,1.3-1.6c0.1,0,0.1,0,0.2,0h94.4c0.7,0,1.4,0.3,1.8,0.9
			c11.7,15.3,23.1,30.8,34.2,46.6c6.1,8.7,24.1,6.8,35.4,6.1c9-0.6,9.1-9,6.1-15.7c-5.6-12.1-11.2-24.1-16.8-36.2
			c-0.4-0.9-0.1-1.4,0.8-1.6c46.2-8.2,62-37.1,69.9-79.7c8-42.9,15.5-85.8,22.5-128.8c2.1-12.8,2.7-22.6,1.9-29.3
			c-4-33.3-29.2-58.7-63-60.8c-1.3-0.1-2.4-1.1-2.6-2.4c-2.8-23-5.7-46.1-8.8-69.2c-3.1-23-6.7-39.2-10.8-48.6
			c-22.3-51-68.5-54.2-119.1-52.8c-5,0.1-7.1-2.3-6.5-7.2c7.5-59.5,9.1-119.5-53.7-149.8c-0.9-0.4-1-1-0.3-1.7
			c31.8-29.3-20.6-60.2-38.7-18.3c-0.4,0.9-1.1,1.2-2,0.8c-64.5-24.6-127.6,9.6-174.2,53c-0.6,0.6-1.6,0.5-2.2-0.1
			c0,0-0.1-0.1-0.1-0.1c-44.5-60.5-130.3-76.1-194-36.9c-60.1,36.9-65.2,96.5-74.1,158.8c-0.1,0.9-0.7,1.4-1.6,1.4
			c-58.5,0-116.5-7.1-142.9,54.9c-3.9,9.1-7.2,23.5-9.9,43.3c-3.4,24.8-6.7,49.6-9.9,74.4c-0.2,1.1-1.2,1.9-2.3,1.7c0,0-0.1,0-0.1,0
			c-38-8-72.7,18.4-78.6,55.9c-1.3,8.2-0.7,20.1,1.7,35.7c7,44.5,14.6,88.9,22.8,133.2c7.1,38.3,26.1,64.5,66.6,72.5
			c0.8,0.1,1.4,0.9,1.2,1.7c0,0.1-0.1,0.3-0.1,0.4c-6.1,12.9-11.8,25.8-17.2,38.7c-7.3,17.8,27.6,12.9,35,11.8c2.9-0.4,4.9-1.4,6-3
			c11.6-16.2,23.2-32.3,34.8-48.5c0.4-0.6,1-0.9,1.8-0.9h72.2c0.7,0,1.3,0.6,1.3,1.3c0,0.1,0,0.2,0,0.3c-2.9,14.2-0.2,27,7.9,38.5
			C250,859.5,249.8,860,248.8,860" class="st0"></path>
		<path d="M268.7,181.4c1.6-2.5,0.5-6.1-2.5-8l0,0c-3-1.9-6.7-1.4-8.3,1.1
			c0,0,0,0,0,0c-1.6,2.5-0.5,6.1,2.5,8c0,0,0,0,0,0C263.4,184.4,267.1,183.9,268.7,181.4C268.7,181.4,268.7,181.4,268.7,181.4" class="st1"></path>
		<path d="M829.3,176.9c-1.5-2.6-5.5-3-8.9-1c-3.4,2-4.8,5.7-3.3,8.3
			c1.5,2.6,5.5,3,8.9,1C829.4,183.2,830.8,179.5,829.3,176.9" class="st1"></path>
		<path d="M289,199.4c1.9-2.3-0.4-7.4-5.3-11.6c-4.8-4.1-10.3-5.6-12.3-3.4
			c0,0,0,0,0,0c-1.9,2.3,0.4,7.4,5.3,11.6C281.6,200.1,287.1,201.7,289,199.4C289,199.4,289,199.4,289,199.4" class="st1"></path>
		<path d="M814.4,186.6c-1.7-2.5-7.5-1.4-12.9,2.4c-5.4,3.8-8.3,8.9-6.6,11.3
			c0,0,0,0,0,0c1.7,2.5,7.5,1.4,12.9-2.4C813.2,194.1,816.2,189,814.4,186.6C814.4,186.6,814.4,186.6,814.4,186.6" class="st0"></path>
		<path d="M251.7,207c1.1-2.8-0.8-6.1-4.2-7.4c-3.4-1.3-7-0.2-8.1,2.6
			c-1.1,2.8,0.8,6.1,4.2,7.4C247,210.9,250.6,209.7,251.7,207" class="st1"></path>
		<path d="M843.6,207.2c-1.1-2.8-4.9-3.9-8.5-2.4l0,0c-3.6,1.4-5.5,4.9-4.4,7.7
			c1.1,2.8,4.9,3.9,8.5,2.4c0,0,0,0,0,0C842.8,213.4,844.7,209.9,843.6,207.2" class="st1"></path>
		<path d="M274,219.1c1.1-2.1,0.3-4.8-1.8-5.9l-10.1-5.4c-2.1-1.1-4.8-0.3-5.9,1.8
			c0,0,0,0,0,0l-0.6,1.2c-1.1,2.1-0.3,4.8,1.8,5.9l10.1,5.4c2.1,1.1,4.8,0.3,5.9-1.8l0,0L274,219.1" class="st1"></path>
		<path d="M827.6,214.6c-1.2-2.8-6.8-3.1-12.3-0.7c-5.6,2.4-9.1,6.7-7.9,9.5
			c0,0,0,0,0,0c1.2,2.8,6.8,3.1,12.3,0.7C825.4,221.7,828.9,217.4,827.6,214.6C827.6,214.6,827.6,214.6,827.6,214.6" class="st1"></path>
		<path d="M262.5,242.8c0.7-2.9-3.3-6.3-8.9-7.7c-5.6-1.3-10.7,0-11.4,2.9
			c-0.7,2.9,3.3,6.3,8.9,7.7C256.7,246.9,261.8,245.7,262.5,242.8" class="st1"></path>
		<path d="M838.8,242.5c-0.7-3.1-6-4.4-11.9-3.1c-5.9,1.3-10.1,4.9-9.4,8
			c0,0,0,0,0,0c0.7,3.1,6,4.4,11.9,3.1C835.3,249.1,839.5,245.6,838.8,242.5C838.8,242.5,838.8,242.5,838.8,242.5" class="st0"></path>
		<path d="M475.6,867.2c0-3.5-2.9-6.4-6.4-6.4c0,0,0,0,0,0c-3.5,0-6.4,2.9-6.4,6.4
			c0,0,0,0,0,0c0,3.5,2.9,6.4,6.4,6.4S475.6,870.8,475.6,867.2L475.6,867.2" class="st1"></path>
		<path d="M166.9,867.5c0-3.5-2.8-6.4-6.4-6.4h0c-3.5,0-6.4,2.8-6.4,6.4l0,0
			c0,3.5,2.8,6.4,6.4,6.4C164,873.9,166.9,871.1,166.9,867.5" class="st1"></path>
		<path d="M191,867.6c0-3.4-2.7-6.1-6.1-6.1c0,0,0,0,0,0c-3.4,0-6.1,2.7-6.1,6.1v0
			c0,3.4,2.7,6.1,6.1,6.1C188.2,873.7,191,871,191,867.6" class="st1"></path>
		<path d="M420.5,867.5c0-3.4-2.8-6.2-6.2-6.2h0c-3.4,0-6.2,2.8-6.2,6.2
			c0,0,0,0,0,0c0,3.4,2.8,6.2,6.2,6.2S420.5,871,420.5,867.5" class="st1"></path>
		<path d="M450.9,867.4c0-3.4-2.8-6.2-6.2-6.2s-6.2,2.8-6.2,6.2l0,0
			c0,3.4,2.8,6.2,6.2,6.2c0,0,0,0,0,0C448.2,873.6,450.9,870.9,450.9,867.4C450.9,867.4,450.9,867.4,450.9,867.4" class="st1"></path>
		<path d="M820.3,867.5c0-3.5-2.9-6.4-6.4-6.4c0,0,0,0,0,0c-3.5,0-6.4,2.9-6.4,6.4
			c0,0,0,0,0,0c0,3.5,2.9,6.4,6.4,6.4C817.5,873.9,820.3,871,820.3,867.5" class="st1"></path>
		<path d="M844.4,867.4c0-3.4-2.8-6.2-6.2-6.2s-6.2,2.8-6.2,6.2
			c0,3.4,2.8,6.2,6.2,6.2c0,0,0,0,0,0C841.6,873.6,844.4,870.9,844.4,867.4C844.4,867.4,844.4,867.4,844.4,867.4" class="st0"></path>
		<path d="M868.6,867.5c0-3.5-2.8-6.3-6.3-6.3c0,0,0,0,0,0c-3.5,0-6.3,2.8-6.3,6.3
			c0,0,0,0,0,0c0,3.5,2.8,6.3,6.3,6.3C865.8,873.8,868.6,871,868.6,867.5" class="st1"></path>
		<path d="M716.8,189.2c-0.4,1.9-2.3,3.1-4.2,2.7c-0.4-0.1-0.8-0.2-1.1-0.5
			c-19.2-12.1-38.9-15.5-62.1-12.8c-51.7,6.1-93.6,38.2-127.4,76.1c-10.2,11.5,2.7,17.1,11.3,20.7c1.9,0.8,2.8,3,2.1,4.9
			c-0.1,0.2-0.2,0.5-0.4,0.7c-3.4,5.1-6.8,9.8-10.2,14.2c-9.4,12.2,6.1,22.4,17.2,18.9c13.1-4.2,22.3-17.2,30.4-28.3
			c0.5-0.7,1.2-1.2,2-1.5c3.2-1.1,5.4-0.7,6.8,1.3c4.8,6.9-6.2,22.3,11.8,22.4c10.9,0.1,22-0.2,33-0.7c0.6,0,1-0.5,0.9-1
			c0-0.1,0-0.2-0.1-0.3c-3.7-11.4-1.2-21.1,7.4-29.3c2.2-2.1,4.5-2.9,6.8-2.5c2.2,0.4,3.7,2.6,3.3,4.8c-0.1,0.5-0.3,1.1-0.6,1.5
			c-4.6,6.8-12.8,18-2.6,24.5c0.9,0.6,1.8,0.8,2.9,0.8l32.6-1.8c0.9,0,1.8-0.5,2.3-1.2l9.6-12.2c0.5-0.6,1.2-0.9,1.9-0.9l26.7,1.7
			c1.7,0.1,3.1,1.5,3.1,3.3c0.2,13.8,0.2,31,12.3,40.2c1.6,1.2,3.9,0.9,5.1-0.7c0.1-0.1,0.1-0.2,0.2-0.3
			c11.5-18.9,27.5-23.6,48.2-14.1c0.6,0.3,1.2,0,1.5-0.5c0.1-0.1,0.1-0.3,0.1-0.4c4.4-57.1-3.5-103.7-65.5-122.1
			c-1.9-0.6-3-2.6-2.4-4.5c0.2-0.6,0.6-1.2,1.1-1.7l19.2-16.7c2-1.8,2.2-4.8,0.4-6.8c-0.6-0.7-1.4-1.2-2.2-1.4
			C724.3,161.3,719,179.6,716.8,189.2" class="st2"></path>
		<path d="M392.6,291.7c-1.3,26.4-34.1,26.8-34.8,0.4c0-0.1-0.1-0.2-0.2-0.3
			c-0.2-0.1-0.5-0.1-0.7-0.2c-0.6-0.2-1,0-1,0.7c-1.8,23.1-31.2,27.4-35.3,3c-0.3-1.6-0.7-1.6-1.2-0.1c-1.3,3.7-2.2,7.5-2.7,11.4
			c-2.7,22.7-4.4,45.4-5.1,68.2c-0.4,14.1,18.7,24.1,29.9,28c31.8,11.1,64.1,12.6,96.9,4.5c14.1-3.5,32.7-10.7,42-22.4
			c0.6-0.7,0.8-1.5,0.7-2.4c-2-29.1-3.8-60-10.7-88.4c-0.3-1.3-0.8-1.4-1.3-0.1c-5.5,13.6-17.1,26.4-31.4,11.9
			c-3.3-3.3-3.6-7.1-5.2-11.5c-0.2-0.4-0.7-0.7-1.1-0.5c-0.3,0.1-0.5,0.3-0.5,0.6c-5,24.3-32.9,22.8-36.5-2.9
			c-0.1-0.5-0.6-0.8-1.1-0.7C392.9,291,392.6,291.3,392.6,291.7" class="st3"></path>
		<path d="M757,334.3c-5.9,5.1-9.6,18.3-18.8,17.2c-23.8-3-31.3-25.6-30.8-46.4
			c0-1-0.4-1.5-1.4-1.5l-11.4-0.5c-1.1-0.1-1.9,0.4-2.5,1.3c-8.3,13.7-25,12.3-43.6,12.8c-4.5,0.1-9.4-3.1-14.7,0.6
			c-0.7,0.5-1.5,0.8-2.3,0.8c-21.4,1.8-48.3,7-58.3-11.1c-0.4-0.6-1.2-0.9-1.8-0.5c-0.2,0.1-0.3,0.2-0.4,0.3
			c-6.8,8.9-15.5,15-26.2,18.5c-0.8,0.3-1.2,0.8-1,1.7c3.3,20.4,6.5,40.8,9.6,61.2c6,38.6,63.4,35.7,90.8,33.3
			c38-3.3,70.6-18.1,97.8-44.4c8.3-8,21.4-2.8,32-8.4C800,355.5,779.5,315,757,334.3" class="st3"></path>
		<path d="M282.5,492c-5.8,20.2-30.1,16.2-31.7-2.3c-0.4-4.7-0.2-15.1,0.6-31.2
			c1.3-25.4,3-50.8,5-76.1c0.1-0.8-0.3-1.2-1.1-1.3c-56.1-1-104.3-7.4-114,61.9c-5.6,39.6-10.4,79.3-14.4,119.1
			c-0.1,0.9,0.1,1.7,0.6,2.4c10.8,16.8,12.4,35.4,17,53.7C155,661.1,164,660,206.1,659c0.9,0,1.5-0.4,1.8-1.3
			c19.9-54.4,50.4-109.2,79-157.6c0.5-0.8,0.5-1.7,0.1-2.5l-2.9-5.7C283.4,490.5,282.9,490.5,282.5,492" class="st4"></path>
		<path d="M826.7,611.9c18.8-0.3,35-2.7,51.4,10.9c1,0.8,1.6,0.6,1.9-0.7
			c5.5-27.3,9-53.5,32.2-72.3c1.5-1.2,2.2-3,2-4.9c-3.2-28-6.6-56.3-10.2-84.8c-3-23.7-6.4-39.4-10.3-47.2
			c-19.4-38.9-63.3-31.8-100.3-32.1c-3.6,0-7.5,0.7-11.7,2.3c-8.5,3.2-17.3,4.8-26.6,4.9c-0.5,0-0.9,0.2-1.3,0.4l-24.5,19.2
			c-0.6,0.5-0.5,0.8,0.2,1c18.5,5.4,33.6,15.9,45.3,31.3c20.5,27,38.1,55.7,52.8,86.1c15,31.2,19.6,56.6-1.8,84
			c-0.4,0.5-0.3,1.2,0.2,1.5C826.2,611.9,826.4,611.9,826.7,611.9" class="st4"></path>
		<path d="M505.3,613.2l26.7,4.1c0.9,0.1,1.8-0.4,2-1.4c5-19.8,16.8-33.8,35.4-41.8
			c0.8-0.3,1.2-0.9,1.3-1.7l3.4-39.1c0.1-1,0.6-1.6,1.5-2c2.8-1.1,5.4-0.6,7.7,1.5c0.7,0.6,1,1.5,0.9,2.4l-2.7,34
			c-0.1,0.8,0.5,1.5,1.3,1.6c0.1,0,0.2,0,0.2,0c13.1-1.1,25.5,1.3,37.1,7.2c0.7,0.4,1.4,0.3,1.9-0.3c34.9-36.6,90.8-54.8,140.3-52.5
			c8.2,0.4,24.4,3.6,26.3,13.5c0.5,2.8-1.3,5.5-4.1,6c-1,0.2-2,0.1-3-0.3c-17.6-7.4-39.7-5.4-58.2-1.6c-0.8,0.2-1.1,0.7-0.9,1.5
			l9.7,41.1c0.2,1,0.7,1.8,1.4,2.4l25.8,21.8c0.6,0.6,1.4,0.9,2.3,1c13.5,1.5,34.4,2.7,46-5.8c20.8-15.3,21.1-40.4,10.5-63.1
			c-14.3-30.4-31.2-59.3-50.8-86.5c-16.1-22.3-34.5-36.6-63.3-30.9c-1.2,0.2-2.1,1.3-2.3,2.5c-4.1,41.1-56,51.8-74.1,13.2
			c-0.4-0.8-1-1.3-1.9-1.4c-28.1-5-43.4,12.4-55.6,35c-22.7,42.1-44.7,88.2-65.7,138.3C504.2,612.6,504.4,613.1,505.3,613.2" class="st3"></path>
		<path d="M559.1,461.3c5.3-10,12.2-18.8,20.7-26.4c1-0.9,0.8-1.4-0.4-1.7
			c-7.3-1.8-14.2-4.7-20.6-8.7c-1.3-0.8-1.9-0.5-1.9,1.1l0.9,35.4c0,0.4,0.3,0.7,0.7,0.7C558.8,461.7,559,461.5,559.1,461.3" class="st4"></path>
		<path d="M390.1,440.7c9.7,3.4,19.5,3.6,29.4,0.4c0.8-0.3,1.3-1.1,1.2-2l-1.7-8.2
			c-0.1-0.6-0.7-0.9-1.2-0.8c-0.1,0-0.3,0.1-0.4,0.2c-8.2,5.4-17.2,8.5-27.1,9.1c-0.4,0-0.7,0.4-0.7,0.8
			C389.7,440.4,389.8,440.6,390.1,440.7" class="st3"></path>
		<path d="M652.6,446.4c11.7,4.9,30.1,0.4,32.5-14.6c0.2-1.4-0.3-1.7-1.4-0.9
			c-9.5,6.4-19.9,11-30.9,13.9C651,445.2,651,445.7,652.6,446.4" class="st3"></path>
		<path d="M487.8,508.1c-10.1-8.2-6.8-21.9-6.9-35c0-1-0.3-2-0.9-2.8
			c-9.1-13.2-21.5-21.6-37.2-25.1c-1.1-0.2-2.1,0-3,0.6c-24.4,18.1-48.3,17.8-71.7-1c-0.7-0.6-1.5-0.8-2.4-0.6
			c-17.2,2.9-30.4,10.9-39.6,24.1c-29.4,42.5-57,90.6-82.8,144.4c-0.3,0.7-0.1,1,0.6,1l20,0.4c0.7,0,1.4-0.4,1.7-1
			c9-19,23.3-32.2,43-39.6c0.9-0.3,1.4-0.9,1.5-1.9l5.9-36.3c0.1-0.8,0.6-1.5,1.4-1.9c3.1-1.7,5.6-1,7.5,2c0.3,0.5,0.5,1.1,0.4,1.8
			l-4,31.9c-0.1,0.7,0.4,1.4,1.1,1.5c0.1,0,0.2,0,0.3,0c21.1-1.6,39.3,4.7,54.7,18.7c0.8,0.7,1.6,0.7,2.4,0.1
			c24.2-18.6,48.8-18.9,73.7-1c1.3,0.9,2,0.6,2.1-1l3.1-49.9c0.1-1,0.5-1.8,1.4-2.3c3.4-1.9,6.1-1.4,8.1,1.5
			c0.5,0.6,0.7,1.4,0.6,2.2l-3.2,57.8c-0.1,1,0.2,1.9,0.8,2.7l15.9,21.9c0.5,0.7,0.9,0.6,1.2-0.1c8.4-20.1,17.1-40,26-59.8
			c3.7-8.2-8.4-41.3-11.7-50.9c-0.3-1-1.3-1.7-2.3-1.7H490C489.2,508.9,488.4,508.6,487.8,508.1" class="st3"></path>
		<path d="M534.7,498.1c-1.8,8.2-13.7,9.5-20.2,6.9c-0.4-0.2-0.9,0-1.1,0.5
			c-0.1,0.2-0.1,0.4,0,0.5l8,26.5c0.4,1.3,0.9,1.4,1.5,0.1l14.9-32.3c0.3-0.6,0.2-1.4-0.2-1.9C536,496.7,535,496.5,534.7,498.1" class="st4"></path>
		<path d="M705.9,574.4c0.1,0.4,0.4,0.6,0.7,0.8l12.2,4.5c0.6,0.2,1.3-0.1,1.5-0.7
			c0.1-0.2,0.1-0.5,0-0.7l-8-32.1c-0.2-0.6-0.8-1-1.4-0.8c0,0,0,0-0.1,0l-11,3.5c-0.6,0.2-0.9,0.8-0.8,1.4L705.9,574.4" class="st3"></path>
		<path d="M694.9,570.6l-4.9-16.2c-0.3-1-1.3-1.6-2.3-1.3c0,0,0,0,0,0l-0.4,0.1
			c-6.1,1.8-10.4,5.7-9.5,8.5c0,0,0,0,0,0l2.8,9.4c0.9,2.9,6.5,3.7,12.7,1.9l0.4-0.1C694.6,572.7,695.1,571.6,694.9,570.6" class="st3"></path>
		<path d="M71.3,729.5c5,28.2,12.6,53.6,47.5,54.1c14.2,0.2,27.6,0.3,40.1,0.1
			c3,0,4.3-1.5,3.9-4.5c-0.7-5.3,0.2-9,2.7-11.2c1.6-1.4,3.2-1.6,5-0.7c4.8,2.5,3.3,10.2,3.4,14.7c0,1,0.8,1.8,1.8,1.8h6.8
			c0.8,0,1.5-0.6,1.5-1.4l0.9-12c0.2-2.2,2-3.9,4.3-3.8c8.8,0.3,5.9,9.9,6.4,15.7c0.1,1,0.7,1.6,1.7,1.6l43.3,0.1
			c0.9,0,1.3-0.4,1.4-1.3l9.2-104.6c0.2-2.1-0.8-3.2-2.9-3.1c-23.9,0.1-48.4,0.1-73.6-0.1c-41-0.3-45.7-55-52.6-83.8
			c-11.9-49.7-81.4-46.2-72.5,9.6C56.5,643.6,63.7,686.6,71.3,729.5" class="st4"></path>
		<path d="M966,564.5c-24.4-22.6-56.8,1.1-63.1,27.7c-4.1,17.1-8.2,34.1-12.5,51.1
			c-6.8,27-26.7,31.6-53.1,31.6c-31.5-0.1-62.7-0.1-93.5,0c-1.2,0-2.1,0.9-2.1,2.1c0,0.1,0,0.2,0,0.3l14,105.4
			c0.1,0.6,0.6,1.1,1.3,1.1c44.7,0,89.3,0,133.8,0c30.4,0,52.8-4.8,59.2-37c4.4-22.6,12.3-66,23.6-130.3
			C977.4,594.4,981.2,578.5,966,564.5" class="st4"></path>
		<path d="M634.3,587l5.9,7.2c0.4,0.5,1,0.5,1.5,0.2c0,0,0,0,0,0l18.4-15
			c3.3-2.7,4.5-6.6,2.8-8.7c0,0,0,0,0,0l-0.9-1.1c-1.7-2.1-5.8-1.7-9.1,1l-18.4,15C634,585.9,634,586.6,634.3,587
			C634.3,587,634.3,587,634.3,587" class="st3"></path>
		<path d="M261.3,790.6c8.3,4.2,12.7,0.2,16.3-7.4c20.7-43.5,40.5-87.4,59.4-131.7
			c1.6-3.8,3.2-7.1,4.8-9.8c1.3-2.3,4.3-3.1,6.6-1.8c1.8,1,2.7,3,2.4,5l-2.1,13c-0.1,0.8,0.2,1,0.9,0.8c1.4-0.5,2.2-1.5,2.4-2.9
			c3-19.4,8.3-36.9,15.9-52.5c0.3-0.7,0.2-1.3-0.3-1.9c-23.5-22.6-60.6-20.9-80,5c-10.6,14.2-15.3,34.9-17.8,53.4
			c-6,43.2-11.2,85.2-11.2,126.1C258.4,787.9,259.5,789.7,261.3,790.6" class="st2"></path>
		<path d="M350.6,777.2c-0.7,6.5,4.5,13.3,11.5,11.9c0.9-0.2,1.6-0.7,2.1-1.5
			c25.3-45.6,50.5-91.1,75.7-136.7c2.2-4,4.4-6.9,6.7-8.8c2.2-1.9,5.4-1.6,7.3,0.6c0.7,0.8,1.1,1.7,1.2,2.7
			c0.5,4.3-0.5,8.2-3.1,11.7c-0.6,0.7-0.4,1.8,0.3,2.4c0.3,0.2,0.7,0.3,1,0.3h13.6c1.1,0,2-0.7,2.4-1.7l5.4-15.1
			c0.2-0.5,0.2-1.1-0.1-1.6c-5.4-11.3-12.1-21.8-20.1-31.3c-31.8-38-74.2-16.4-83.6,26C360.7,681.9,355.6,730.5,350.6,777.2" class="st2"></path>
		<path d="M529.9,627.6c0.1-0.4-0.2-0.7-0.6-0.8c0,0,0,0,0,0l-30.1-5.3
			c-0.4-0.1-0.7,0.2-0.8,0.6l-2.1,11.9c-0.1,0.4,0.2,0.7,0.6,0.8h0L527,640c0.4,0.1,0.7-0.2,0.8-0.6c0,0,0,0,0,0L529.9,627.6" class="st3"></path>
		<path d="M238.4,624.4c-0.3,0-0.6,0.2-0.7,0.5l-4.1,10.3c-0.2,0.4,0,0.9,0.4,1
			c0.1,0,0.2,0.1,0.3,0.1l22.9-0.1c0.4,0,0.7-0.3,0.8-0.6l2.5-10.2c0.1-0.4-0.2-0.8-0.6-0.9c-0.1,0-0.1,0-0.2,0L238.4,624.4" class="st3"></path>
		<path d="M787.1,635.1c18.9,0.5,37.8,0.6,56.7,0.3c10.8-0.2,19.3,3.9,25.6,12.1
			c0.5,0.6,1,0.7,1.7,0.2c9-6.4-1.9-16.7-8.2-19.8c-8.4-4.1-19.8-3.4-29.8-3.1c-11.7,0.3-31,0.3-58.1,0.1c-0.9,0-1.1,0.4-0.8,1.2
			C777.2,632.2,779.7,634.9,787.1,635.1" class="st3"></path>
		<path d="M525.3,649.5c0.1-0.5-0.2-0.9-0.7-1c0,0,0,0,0,0l-32.9-4.7
			c-0.4-0.1-0.8,0.2-0.9,0.5l-5.4,14.2c-0.2,0.4,0.1,0.9,0.5,1.1c0.1,0,0.2,0.1,0.3,0.1H523c0.4,0,0.8-0.3,0.8-0.7L525.3,649.5" class="st3"></path>
		<path d="M227.8,659.9l24.8-0.2c1.8,0,3.3-1.5,3.3-3.3c0,0,0,0,0,0v-0.3
			c0-6-2.5-10.9-5.6-10.9c0,0,0,0,0,0l-20.4,0.2c-3,0-5.4,4.9-5.4,11v0.3C224.6,658.5,226,659.9,227.8,659.9
			C227.8,659.9,227.8,659.9,227.8,659.9" class="st3"></path>
		<path d="M826.2,660.1l31.7-1.5c0.9,0,1.7-0.8,1.6-1.8c0-0.1,0-0.2,0-0.3
			c-2.8-12.8-29.1-8.5-39.2-8.6c-1.3,0-1.6,0.6-1,1.7l4.9,9.3C824.6,659.7,825.4,660.1,826.2,660.1" class="st2"></path>
		<path d="M808.7,659.4c0.8-0.2,1.2-1.1,1-1.8c0-0.1,0-0.1-0.1-0.2l-3.6-8.2
			c-0.3-0.7-0.9-1.1-1.7-1.1l-11-0.2c-1.4,0-2,0.7-1.8,2C793.1,659.2,798.8,662.4,808.7,659.4" class="st4"></path>
		<path d="M342.4,677.1c-15.7,34.7-31.4,69.9-47.2,105.6c-0.2,0.4,0,0.9,0.5,1.1
			c0.1,0,0.2,0.1,0.3,0.1l37.3-0.1c0.9,0,1.6-0.6,1.7-1.5l12.4-104.1c0.2-1.8-0.9-3.4-2.5-3.7c-0.1,0-0.2,0-0.3,0
			C343.9,674.5,343.2,675.3,342.4,677.1" class="st4"></path>
		<path d="M385,782.5c-0.2,0.4-0.1,1,0.4,1.2c0.1,0.1,0.3,0.1,0.4,0.1l125.6,0.1
			c0.5,0,0.9-0.4,0.9-0.8l8.8-107.2c0-0.5-0.3-0.9-0.8-1c0,0-0.1,0-0.1,0h-76.2c-0.3,0-0.6,0.2-0.8,0.5L385,782.5" class="st4"></path>
		<path d="M636.8,675.4c-3.1-1.3-5.5-1.2-7.1,0.1c-1.1,0.9-1.8,2.8-2.1,5.7
			c-4,33.6-7.4,67.3-10.1,101.1c-0.1,0.9,0.4,1.4,1.3,1.4h28.9c1,0,1.8-0.8,1.8-1.8c0-0.1,0-0.1,0-0.2l-11.8-105.3
			C637.5,676,637.3,675.6,636.8,675.4" class="st4"></path>
		<path d="M312.5,855.3c23,2.1,41.4-10.6,40.1-35.1c-0.4-8.3-9.6-7.7-14.3-3.1
			c-10.9,10.8-19.8,23-26.7,36.5c-0.3,0.6-0.1,1.3,0.5,1.6C312.3,855.3,312.4,855.3,312.5,855.3" class="st3"></path>
		<path d="M743,818.3c0-1.2-1-2.2-2.3-2.2l-17.4,0.2c-1.2,0-2.2,1-2.2,2.3l0,3
			c0,1.2,1,2.2,2.3,2.2l17.4-0.2c1.2,0,2.2-1,2.2-2.3L743,818.3" class="st3"></path>
		<path d="M570.2,819.1c0-1.1-0.9-1.9-2-1.9l0,0l-15.8,0.1c-1.1,0-1.9,0.9-1.9,2
			l0,2.7c0,1.1,0.9,1.9,2,1.9h0l15.8-0.1c1.1,0,1.9-0.9,1.9-2L570.2,819.1" class="st3"></path>
		<path d="M590.4,859.9h66.4c0.8,0,1.2-0.4,1.3-1.1c3-26.1,24.4-29.2,46.5-31
			c1.1-0.1,1.6-0.7,1.3-1.8l-1.3-6c-0.2-1-0.8-1.4-1.8-1.4L590,818.6c-2.6,0-3.7,1.3-3.5,3.8l3.2,36.9
			C589.7,859.7,590,859.9,590.4,859.9" class="st0"></path>
		<path d="M301,837.1c0.3,0.4,0.9,0.5,1.2,0.2c0.1-0.1,0.1-0.1,0.2-0.2l12-17.1
			c0.3-0.4,0.2-1-0.2-1.2c-0.1-0.1-0.3-0.2-0.5-0.2h-25c-0.5,0-0.9,0.4-0.9,0.9c0,0.2,0.1,0.4,0.2,0.6L301,837.1" class="st0"></path>
		<path d="M263.7,821c-15.2-1.8-8.8,44.1,27.6,35.7c1.1-0.2,1.8-1.3,1.5-2.4
			c0-0.2-0.1-0.4-0.2-0.6C287.9,845.8,273.1,822.1,263.7,821" class="st3"></path>
		<path d="M503.3,861.1l68.3-0.4c1.1,0,1.9-0.9,1.9-1.9l0-2.1
			c0-3.6-3.1-6.5-6.9-6.5c0,0,0,0,0,0l-58.5,0.3c-3.8,0-6.8,3-6.8,6.6l0,2.1C501.4,860.2,502.3,861.1,503.3,861.1
			C503.3,861.1,503.3,861.1,503.3,861.1" class="st3"></path>
		<path d="M675.1,860.9l70.3-0.4c0.8,0,1.4-0.6,1.4-1.4v0l0-2.2
			c0-3.6-2.9-6.5-6.4-6.5l-60.6,0.3c-3.5,0-6.3,3-6.3,6.6c0,0,0,0,0,0l0,2.2C673.6,860.2,674.3,860.9,675.1,860.9" class="st3"></path>
		<path d="M353.3,332.5c0.1-3.1-2.4-5.7-5.5-5.8l-0.9,0c-3.1-0.1-5.7,2.4-5.8,5.5
			l-0.6,18.6c-0.1,3.1,2.4,5.7,5.5,5.8l0.9,0c3.1,0.1,5.7-2.4,5.8-5.5L353.3,332.5" class="st3"></path>
		<path d="M447.8,332.9c0.1-3.1-2.4-5.7-5.5-5.8c0,0,0,0,0,0l-0.9,0
			c-3.1-0.1-5.7,2.4-5.8,5.5c0,0,0,0,0,0l-0.5,18.8c-0.1,3.1,2.4,5.7,5.5,5.8c0,0,0,0,0,0l0.9,0c3.1,0.1,5.7-2.4,5.8-5.5
			c0,0,0,0,0,0L447.8,332.9" class="st3"></path>
		<path d="M339.2,382.3c6.5-3.7,8.5-12.3,4.6-19.1s-12.4-9.4-18.8-5.6c0,0,0,0,0,0
			c-6.5,3.7-8.5,12.3-4.6,19.1C324.3,383.5,332.7,386,339.2,382.3C339.2,382.3,339.2,382.3,339.2,382.3" class="st5"></path>
		<path d="M473.8,370.1c0-7.8-6.3-14.1-14.1-14.1c-7.8,0-14.1,6.3-14.1,14.1
			c0,7.8,6.3,14.1,14.1,14.1C467.5,384.3,473.8,377.9,473.8,370.1" class="st5"></path>
		<path d="M411.5,365.8c-0.7-0.3-1.5-0.1-2.1,0.4c-13.3,11.6-18.5,9.8-31.7-0.4
			c-0.7-0.6-1.7-0.7-2.6-0.3c-2.2,1-3.5,2.7-3.9,5.1c-0.2,1,0.1,2,0.7,2.9C392.9,400.7,427.7,371.3,411.5,365.8" class="st3"></path>
		<path d="M683,330.6c-0.4-3.2-3.4-5.4-6.6-5c0,0,0,0,0,0l-0.6,0.1
			c-3.2,0.4-5.4,3.4-5,6.6c0,0,0,0,0,0l2.6,19.2c0.4,3.2,3.4,5.4,6.6,5c0,0,0,0,0,0l0.6-0.1c3.2-0.4,5.4-3.4,5-6.6c0,0,0,0,0,0
			L683,330.6" class="st3"></path>
		<path d="M585.7,342.1c-0.5-3.2-3.6-5.4-6.8-4.9l0,0l-0.6,0.1
			c-3.2,0.5-5.4,3.6-4.9,6.8l3,18.3c0.5,3.2,3.6,5.4,6.8,4.9l0,0l0.6-0.1c3.2-0.5,5.4-3.6,4.9-6.8L585.7,342.1" class="st3"></path>
		<path d="M713.5,368.2c0-7.7-6.2-13.9-13.9-13.9c-7.7,0-13.9,6.2-13.9,13.9v0
			c0,7.7,6.2,13.9,13.9,13.9c0,0,0,0,0,0C707.3,382.1,713.5,375.9,713.5,368.2" class="st5"></path>
		<path d="M649.8,367.1c0.7,14.9-12.9,30.8-27.1,17.3c-3.3-3.1-4.5-8.1-6.1-12.2
			c-0.9-2.3-3.5-3.4-5.8-2.5c-1.5,0.6-2.6,2-2.8,3.7c-2.9,34,57.3,36.5,51.1-7.1c-0.1-0.9-0.8-1.5-1.7-1.6l-4.9-0.3
			C650.6,364.3,649.7,365.2,649.8,367.1" class="st3"></path>
		<path d="M584.9,383.9c0-7.7-6.2-13.9-13.9-13.9c-7.7,0-13.9,6.2-13.9,13.9
			s6.2,13.9,13.9,13.9C578.7,397.7,584.9,391.5,584.9,383.9" class="st5"></path>
		<path d="M204.4,496.7c-5.4-0.2-9.2,2.4-11.5,8c-0.4,0.9-1.4,1.4-2.3,1
			c-0.4-0.2-0.7-0.4-0.9-0.8c-2.1-4-5.2-6.9-9.3-8.7c-0.8-0.4-1.8-0.4-2.6-0.1c-15.4,5.3,4,24.4,9.4,29.7c1.8,1.7,4.6,1.8,6.5,0.3
			c5.5-4.5,22.3-19.5,15.1-27.3C207.7,497.5,206.1,496.8,204.4,496.7" class="st4"></path>
		<path d="M860.2,592.2c5-2.9,22-17.7,16.8-24.1c-6.2-7.7-11.1-1.4-15.4,3.3
			c-0.5,0.6-1.5,0.6-2.1,0.1c0,0,0,0,0,0c-5.1-5.1-12.9-10.1-15.6,0.9c-0.1,0.6-0.1,1.2,0.2,1.7c3.2,7.1,7.9,13.1,14,17.9
			C858.8,592.6,859.5,592.7,860.2,592.2" class="st4"></path>
		<path d="M584.6,519.4c0-3-2.4-5.4-5.4-5.4c-3,0-5.4,2.4-5.4,5.4
			c0,3,2.4,5.4,5.4,5.4C582.2,524.8,584.6,522.4,584.6,519.4" class="st6"></path>
		<path d="M437.4,474.5c1.5-2.1,1-5-1.1-6.5l-0.5-0.4c-2.1-1.5-5-1-6.5,1.1
			l-31.4,43.9c-1.5,2.1-1,5,1.1,6.5l0.5,0.4c2.1,1.5,5,1,6.5-1.1L437.4,474.5" class="st3"></path>
		<path d="M327.1,521.9c0-3-2.4-5.4-5.4-5.4h0c-3,0-5.4,2.4-5.4,5.4
			c0,3,2.4,5.4,5.4,5.4C324.6,527.4,327.1,524.9,327.1,521.9" class="st6"></path>
		<path d="M469.3,522.8c0-3.1-2.5-5.6-5.6-5.6c-3.1,0-5.6,2.5-5.6,5.6
			c0,3.1,2.5,5.6,5.6,5.6h0C466.8,528.4,469.3,525.9,469.3,522.8L469.3,522.8" class="st6"></path>
	</g>
	<path d="M249.4,858.7c-8.1-11.5-10.8-24.3-7.9-38.5c0.2-0.7-0.3-1.4-1-1.6c-0.1,0-0.2,0-0.3,0H168
		c-0.8,0-1.3,0.3-1.8,0.9c-11.6,16.2-23.2,32.4-34.8,48.5c-1.1,1.5-3.1,2.5-6,3c-7.4,1.1-42.3,6-35-11.8c5.3-12.9,11-25.8,17.2-38.7
		c0.4-0.7,0.1-1.6-0.7-2c-0.1-0.1-0.3-0.1-0.4-0.1c-40.5-8-59.5-34.2-66.6-72.5c-8.2-44.3-15.8-88.7-22.8-133.2
		c-2.5-15.6-3-27.5-1.7-35.7c6-37.4,40.7-63.8,78.6-55.9c1.1,0.2,2.1-0.5,2.4-1.6c0,0,0-0.1,0-0.1c3.2-24.8,6.5-49.6,9.9-74.4
		c2.7-19.8,6-34.2,9.9-43.3c26.5-62,84.5-54.9,142.9-54.9c0.9,0,1.5-0.5,1.6-1.4c8.9-62.3,14-121.9,74.1-158.8
		c63.8-39.1,149.6-23.6,194,36.9c0.5,0.7,1.5,0.8,2.2,0.3c0,0,0.1-0.1,0.1-0.1c46.6-43.5,109.7-77.7,174.2-53c0.9,0.4,1.6,0.1,2-0.8
		c18.1-41.9,70.5-10.9,38.7,18.3c-0.7,0.7-0.6,1.2,0.3,1.7c62.8,30.4,61.2,90.3,53.7,149.8c-0.6,4.9,1.6,7.3,6.5,7.2
		c50.6-1.4,96.7,1.8,119.1,52.8c4.1,9.4,7.7,25.6,10.8,48.6c3.1,23.2,6,46.3,8.8,69.2c0.1,1.3,1.2,2.3,2.6,2.4
		c33.8,2.1,59,27.5,63,60.8c0.8,6.7,0.2,16.5-1.9,29.3c-7,43-14.5,86-22.5,128.8c-8,42.6-23.7,71.4-69.9,79.7
		c-1,0.2-1.3,0.7-0.8,1.6c5.6,12.1,11.2,24.1,16.8,36.2c3.1,6.7,3,15.1-6.1,15.7c-11.3,0.7-29.3,2.6-35.4-6.1
		c-11.1-15.8-22.5-31.3-34.2-46.6c-0.4-0.6-1.1-0.9-1.8-0.9h-94.4c-0.8,0-1.5,0.7-1.5,1.5c0,0.1,0,0.1,0,0.2l3.9,39
		c0.1,0.8,0.5,1.3,1.4,1.3l26.5,0.3c1.1,0,2,0.8,2.2,1.9l1,7c0.3,2.2-1.2,4.3-3.4,4.6c-0.2,0-0.4,0-0.6,0
		c-98.4,0-196.6,0.1-294.8,0.1c-13.5,0-9.4-20.9-6-27.4c7.6-14.5,29-19.4,44.3-18.9c0.9,0,1.4-0.4,1.3-1.4l-0.7-6.6
		c-0.1-1.1-0.7-1.6-1.8-1.6l-161.8,0c-0.9,0-1.5,0.5-1.6,1.4c-1.8,15-3.7,28.1-15.3,38.9c-0.2,0.2-0.2,0.6,0,0.9
		c0.1,0.1,0.3,0.2,0.4,0.2l37,0.3c0.9,0,1.6,0.4,2.2,1c2.7,3.3,3.2,6.8,1.5,10.6c-0.6,1.3-1.9,2.2-3.4,2.2
		c-61.1,0.6-122.3,1.8-183.2,0c-1.9,0-3.6-1.3-4.3-3.1c-1.2-3.6-0.6-6.7,1.8-9.5c0.6-0.7,1.3-1,2.2-1l40.6-0.6
		C249.8,860,250,859.5,249.4,858.7z M716.8,189.2c-0.4,1.9-2.3,3.1-4.2,2.7c-0.4-0.1-0.8-0.2-1.1-0.5
		c-19.2-12.1-38.9-15.5-62.1-12.8c-51.7,6.1-93.6,38.2-127.4,76.1c-10.2,11.5,2.7,17.1,11.3,20.7c1.9,0.8,2.8,3,2.1,4.9
		c-0.1,0.2-0.2,0.5-0.4,0.7c-3.4,5.1-6.8,9.8-10.2,14.2c-9.4,12.2,6.1,22.4,17.2,18.9c13.1-4.2,22.3-17.2,30.4-28.3
		c0.5-0.7,1.2-1.2,2-1.5c3.2-1.1,5.4-0.7,6.8,1.3c4.8,6.9-6.2,22.3,11.8,22.4c10.9,0.1,22-0.2,33-0.7c0.6,0,1-0.5,0.9-1
		c0-0.1,0-0.2-0.1-0.3c-3.7-11.4-1.2-21.1,7.4-29.3c2.2-2.1,4.5-2.9,6.8-2.5c2.2,0.4,3.7,2.6,3.3,4.8c-0.1,0.5-0.3,1.1-0.6,1.5
		c-4.6,6.8-12.8,18-2.6,24.5c0.9,0.6,1.8,0.8,2.9,0.8l32.6-1.8c0.9,0,1.8-0.5,2.3-1.2l9.6-12.2c0.5-0.6,1.2-0.9,1.9-0.9l26.7,1.7
		c1.7,0.1,3.1,1.5,3.1,3.3c0.2,13.8,0.2,31,12.3,40.2c1.6,1.2,3.9,0.9,5.1-0.7c0.1-0.1,0.1-0.2,0.2-0.3
		c11.5-18.9,27.5-23.6,48.2-14.1c0.6,0.3,1.2,0,1.5-0.5c0.1-0.1,0.1-0.3,0.1-0.4c4.4-57.1-3.5-103.7-65.5-122.1
		c-1.9-0.6-3-2.6-2.4-4.5c0.2-0.6,0.6-1.2,1.1-1.7l19.2-16.7c2-1.8,2.2-4.8,0.4-6.8c-0.6-0.7-1.4-1.2-2.2-1.4
		C724.3,161.3,719,179.6,716.8,189.2z M392.6,291.7c-1.3,26.4-34.1,26.8-34.8,0.4c0-0.1-0.1-0.2-0.2-0.3c-0.2-0.1-0.5-0.1-0.7-0.2
		c-0.6-0.2-1,0-1,0.7c-1.8,23.1-31.2,27.4-35.3,3c-0.3-1.6-0.7-1.6-1.2-0.1c-1.3,3.7-2.2,7.5-2.7,11.4c-2.7,22.7-4.4,45.4-5.1,68.2
		c-0.4,14.1,18.7,24.1,29.9,28c31.8,11.1,64.1,12.6,96.9,4.5c14.1-3.5,32.7-10.7,42-22.4c0.6-0.7,0.8-1.5,0.7-2.4
		c-2-29.1-3.8-60-10.7-88.4c-0.3-1.3-0.8-1.4-1.3-0.1c-5.5,13.6-17.1,26.4-31.4,11.9c-3.3-3.3-3.6-7.1-5.2-11.5
		c-0.2-0.4-0.7-0.7-1.1-0.5c-0.3,0.1-0.5,0.3-0.5,0.6c-5,24.3-32.9,22.8-36.5-2.9c-0.1-0.5-0.6-0.8-1.1-0.7
		C392.9,291,392.6,291.3,392.6,291.7z M757,334.3c-5.9,5.1-9.6,18.3-18.8,17.2c-23.8-3-31.3-25.6-30.8-46.4c0-1-0.4-1.5-1.4-1.5
		l-11.4-0.5c-1.1-0.1-1.9,0.4-2.5,1.3c-8.3,13.7-25,12.3-43.6,12.8c-4.5,0.1-9.4-3.1-14.7,0.6c-0.7,0.5-1.5,0.8-2.3,0.8
		c-21.4,1.8-48.3,7-58.3-11.1c-0.4-0.6-1.2-0.9-1.8-0.5c-0.2,0.1-0.3,0.2-0.4,0.3c-6.8,8.9-15.5,15-26.2,18.5
		c-0.8,0.3-1.2,0.8-1,1.7c3.3,20.4,6.5,40.8,9.6,61.2c6,38.6,63.4,35.7,90.8,33.3c38-3.3,70.6-18.1,97.8-44.4c8.3-8,21.4-2.8,32-8.4
		C800,355.5,779.5,315,757,334.3z M282.5,492c-5.8,20.2-30.1,16.2-31.7-2.3c-0.4-4.7-0.2-15.1,0.6-31.2c1.3-25.4,3-50.8,5-76.1
		c0.1-0.8-0.3-1.2-1.1-1.3c-56.1-1-104.3-7.4-114,61.9c-5.6,39.6-10.4,79.3-14.4,119.1c-0.1,0.9,0.1,1.7,0.6,2.4
		c10.8,16.8,12.4,35.4,17,53.7C155,661.1,164,660,206.1,659c0.9,0,1.5-0.4,1.8-1.3c19.9-54.4,50.4-109.2,79-157.6
		c0.5-0.8,0.5-1.7,0.1-2.5l-2.9-5.7C283.4,490.5,282.9,490.5,282.5,492z M826.7,611.9c18.8-0.3,35-2.7,51.4,10.9
		c1,0.8,1.6,0.6,1.9-0.7c5.5-27.3,9-53.5,32.2-72.3c1.5-1.2,2.2-3,2-4.9c-3.2-28-6.6-56.3-10.2-84.8c-3-23.7-6.4-39.4-10.3-47.2
		c-19.4-38.9-63.3-31.8-100.3-32.1c-3.6,0-7.5,0.7-11.7,2.3c-8.5,3.2-17.3,4.8-26.6,4.9c-0.5,0-0.9,0.2-1.3,0.4l-24.5,19.2
		c-0.6,0.5-0.5,0.8,0.2,1c18.5,5.4,33.6,15.9,45.3,31.3c20.5,27,38.1,55.7,52.8,86.1c15,31.2,19.6,56.6-1.8,84
		c-0.4,0.5-0.3,1.2,0.2,1.5C826.2,611.9,826.4,611.9,826.7,611.9z M505.3,613.2l26.7,4.1c0.9,0.1,1.8-0.4,2-1.4
		c5-19.8,16.8-33.8,35.4-41.8c0.8-0.3,1.2-0.9,1.3-1.7l3.4-39.1c0.1-1,0.6-1.6,1.5-2c2.8-1.1,5.4-0.6,7.7,1.5c0.7,0.6,1,1.5,0.9,2.4
		l-2.7,34c-0.1,0.8,0.5,1.5,1.3,1.6c0.1,0,0.2,0,0.2,0c13.1-1.1,25.5,1.3,37.1,7.2c0.7,0.4,1.4,0.3,1.9-0.3
		c34.9-36.6,90.8-54.8,140.3-52.5c8.2,0.4,24.4,3.6,26.3,13.5c0.5,2.8-1.3,5.5-4.1,6c-1,0.2-2,0.1-3-0.3
		c-17.6-7.4-39.7-5.4-58.2-1.6c-0.8,0.2-1.1,0.7-0.9,1.5l9.7,41.1c0.2,1,0.7,1.8,1.4,2.4l25.8,21.8c0.6,0.6,1.4,0.9,2.3,1
		c13.5,1.5,34.4,2.7,46-5.8c20.8-15.3,21.1-40.4,10.5-63.1c-14.3-30.4-31.2-59.3-50.8-86.5c-16.1-22.3-34.5-36.6-63.3-30.9
		c-1.2,0.2-2.1,1.3-2.3,2.5c-4.1,41.1-56,51.8-74.1,13.2c-0.4-0.8-1-1.3-1.9-1.4c-28.1-5-43.4,12.4-55.6,35
		c-22.7,42.1-44.7,88.2-65.7,138.3C504.2,612.6,504.4,613.1,505.3,613.2z M559.1,461.3c5.3-10,12.2-18.8,20.7-26.4
		c1-0.9,0.8-1.4-0.4-1.7c-7.3-1.8-14.2-4.7-20.6-8.7c-1.3-0.8-1.9-0.5-1.9,1.1l0.9,35.4c0,0.4,0.3,0.7,0.7,0.7
		C558.8,461.7,559,461.5,559.1,461.3z M390.1,440.7c9.7,3.4,19.5,3.6,29.4,0.4c0.8-0.3,1.3-1.1,1.2-2l-1.7-8.2
		c-0.1-0.6-0.7-0.9-1.2-0.8c-0.1,0-0.3,0.1-0.4,0.2c-8.2,5.4-17.2,8.5-27.1,9.1c-0.4,0-0.7,0.4-0.7,0.8
		C389.7,440.4,389.8,440.6,390.1,440.7z M652.6,446.4c11.7,4.9,30.1,0.4,32.5-14.6c0.2-1.4-0.3-1.7-1.4-0.9
		c-9.5,6.4-19.9,11-30.9,13.9C651,445.2,651,445.7,652.6,446.4z M487.8,508.1c-10.1-8.2-6.8-21.9-6.9-35c0-1-0.3-2-0.9-2.8
		c-9.1-13.2-21.5-21.6-37.2-25.1c-1.1-0.2-2.1,0-3,0.6c-24.4,18.1-48.3,17.8-71.7-1c-0.7-0.6-1.5-0.8-2.4-0.6
		c-17.2,2.9-30.4,10.9-39.6,24.1c-29.4,42.5-57,90.6-82.8,144.4c-0.3,0.7-0.1,1,0.6,1l20,0.4c0.7,0,1.4-0.4,1.7-1
		c9-19,23.3-32.2,43-39.6c0.9-0.3,1.4-0.9,1.5-1.9l5.9-36.3c0.1-0.8,0.6-1.5,1.4-1.9c3.1-1.7,5.6-1,7.5,2c0.3,0.5,0.5,1.1,0.4,1.8
		l-4,31.9c-0.1,0.7,0.4,1.4,1.1,1.5c0.1,0,0.2,0,0.3,0c21.1-1.6,39.3,4.7,54.7,18.7c0.8,0.7,1.6,0.7,2.4,0.1
		c24.2-18.6,48.8-18.9,73.7-1c1.3,0.9,2,0.6,2.1-1l3.1-49.9c0.1-1,0.5-1.8,1.4-2.3c3.4-1.9,6.1-1.4,8.1,1.5c0.5,0.6,0.7,1.4,0.6,2.2
		l-3.2,57.8c-0.1,1,0.2,1.9,0.8,2.7l15.9,21.9c0.5,0.7,0.9,0.6,1.2-0.1c8.4-20.1,17.1-40,26-59.8c3.7-8.2-8.4-41.3-11.7-50.9
		c-0.3-1-1.3-1.7-2.3-1.7H490C489.2,508.9,488.4,508.6,487.8,508.1z M534.7,498.1c-1.8,8.2-13.7,9.5-20.2,6.9
		c-0.4-0.2-0.9,0-1.1,0.5c-0.1,0.2-0.1,0.4,0,0.5l8,26.5c0.4,1.3,0.9,1.4,1.5,0.1l14.9-32.3c0.3-0.6,0.2-1.4-0.2-1.9
		C536,496.7,535,496.5,534.7,498.1z M705.9,574.4c0.1,0.4,0.4,0.6,0.7,0.8l12.2,4.5c0.6,0.2,1.3-0.1,1.5-0.7c0.1-0.2,0.1-0.5,0-0.7
		l-8-32.1c-0.2-0.6-0.8-1-1.4-0.8c0,0,0,0-0.1,0l-11,3.5c-0.6,0.2-0.9,0.8-0.8,1.4L705.9,574.4z M694.9,570.6l-4.9-16.2
		c-0.3-1-1.3-1.6-2.3-1.3c0,0,0,0,0,0l-0.4,0.1c-6.1,1.8-10.4,5.7-9.5,8.5c0,0,0,0,0,0l2.8,9.4c0.9,2.9,6.5,3.7,12.7,1.9l0.4-0.1
		C694.6,572.7,695.1,571.6,694.9,570.6z M71.3,729.5c5,28.2,12.6,53.6,47.5,54.1c14.2,0.2,27.6,0.3,40.1,0.1c3,0,4.3-1.5,3.9-4.5
		c-0.7-5.3,0.2-9,2.7-11.2c1.6-1.4,3.2-1.6,5-0.7c4.8,2.5,3.3,10.2,3.4,14.7c0,1,0.8,1.8,1.8,1.8h6.8c0.8,0,1.5-0.6,1.5-1.4l0.9-12
		c0.2-2.2,2-3.9,4.3-3.8c8.8,0.3,5.9,9.9,6.4,15.7c0.1,1,0.7,1.6,1.7,1.6l43.3,0.1c0.9,0,1.3-0.4,1.4-1.3l9.2-104.6
		c0.2-2.1-0.8-3.2-2.9-3.1c-23.9,0.1-48.4,0.1-73.6-0.1c-41-0.3-45.7-55-52.6-83.8c-11.9-49.7-81.4-46.2-72.5,9.6
		C56.5,643.6,63.7,686.6,71.3,729.5z M966,564.5c-24.4-22.6-56.8,1.1-63.1,27.7c-4.1,17.1-8.2,34.1-12.5,51.1
		c-6.8,27-26.7,31.6-53.1,31.6c-31.5-0.1-62.7-0.1-93.5,0c-1.2,0-2.1,0.9-2.1,2.1c0,0.1,0,0.2,0,0.3l14,105.4
		c0.1,0.6,0.6,1.1,1.3,1.1c44.7,0,89.3,0,133.8,0c30.4,0,52.8-4.8,59.2-37c4.4-22.6,12.3-66,23.6-130.3
		C977.4,594.4,981.2,578.5,966,564.5z M634.3,587l5.9,7.2c0.4,0.5,1,0.5,1.5,0.2c0,0,0,0,0,0l18.4-15c3.3-2.7,4.5-6.6,2.8-8.7
		c0,0,0,0,0,0l-0.9-1.1c-1.7-2.1-5.8-1.7-9.1,1l-18.4,15C634,585.9,634,586.6,634.3,587C634.3,587,634.3,587,634.3,587z
		 M261.3,790.6c8.3,4.2,12.7,0.2,16.3-7.4c20.7-43.5,40.5-87.4,59.4-131.7c1.6-3.8,3.2-7.1,4.8-9.8c1.3-2.3,4.3-3.1,6.6-1.8
		c1.8,1,2.7,3,2.4,5l-2.1,13c-0.1,0.8,0.2,1,0.9,0.8c1.4-0.5,2.2-1.5,2.4-2.9c3-19.4,8.3-36.9,15.9-52.5c0.3-0.7,0.2-1.3-0.3-1.9
		c-23.5-22.6-60.6-20.9-80,5c-10.6,14.2-15.3,34.9-17.8,53.4c-6,43.2-11.2,85.2-11.2,126.1C258.4,787.9,259.5,789.7,261.3,790.6z
		 M350.6,777.2c-0.7,6.5,4.5,13.3,11.5,11.9c0.9-0.2,1.6-0.7,2.1-1.5c25.3-45.6,50.5-91.1,75.7-136.7c2.2-4,4.4-6.9,6.7-8.8
		c2.2-1.9,5.4-1.6,7.3,0.6c0.7,0.8,1.1,1.7,1.2,2.7c0.5,4.3-0.5,8.2-3.1,11.7c-0.6,0.7-0.4,1.8,0.3,2.4c0.3,0.2,0.7,0.3,1,0.3h13.6
		c1.1,0,2-0.7,2.4-1.7l5.4-15.1c0.2-0.5,0.2-1.1-0.1-1.6c-5.4-11.3-12.1-21.8-20.1-31.3c-31.8-38-74.2-16.4-83.6,26
		C360.7,681.9,355.6,730.5,350.6,777.2z M529.9,627.6c0.1-0.4-0.2-0.7-0.6-0.8c0,0,0,0,0,0l-30.1-5.3c-0.4-0.1-0.7,0.2-0.8,0.6
		l-2.1,11.9c-0.1,0.4,0.2,0.7,0.6,0.8h0L527,640c0.4,0.1,0.7-0.2,0.8-0.6c0,0,0,0,0,0L529.9,627.6z M238.4,624.4
		c-0.3,0-0.6,0.2-0.7,0.5l-4.1,10.3c-0.2,0.4,0,0.9,0.4,1c0.1,0,0.2,0.1,0.3,0.1l22.9-0.1c0.4,0,0.7-0.3,0.8-0.6l2.5-10.2
		c0.1-0.4-0.2-0.8-0.6-0.9c-0.1,0-0.1,0-0.2,0L238.4,624.4z M787.1,635.1c18.9,0.5,37.8,0.6,56.7,0.3c10.8-0.2,19.3,3.9,25.6,12.1
		c0.5,0.6,1,0.7,1.7,0.2c9-6.4-1.9-16.7-8.2-19.8c-8.4-4.1-19.8-3.4-29.8-3.1c-11.7,0.3-31,0.3-58.1,0.1c-0.9,0-1.1,0.4-0.8,1.2
		C777.2,632.2,779.7,634.9,787.1,635.1z M525.3,649.5c0.1-0.5-0.2-0.9-0.7-1c0,0,0,0,0,0l-32.9-4.7c-0.4-0.1-0.8,0.2-0.9,0.5
		l-5.4,14.2c-0.2,0.4,0.1,0.9,0.5,1.1c0.1,0,0.2,0.1,0.3,0.1H523c0.4,0,0.8-0.3,0.8-0.7L525.3,649.5z M227.8,659.9l24.8-0.2
		c1.8,0,3.3-1.5,3.3-3.3c0,0,0,0,0,0v-0.3c0-6-2.5-10.9-5.6-10.9c0,0,0,0,0,0l-20.4,0.2c-3,0-5.4,4.9-5.4,11v0.3
		C224.6,658.5,226,659.9,227.8,659.9C227.8,659.9,227.8,659.9,227.8,659.9z M826.2,660.1l31.7-1.5c0.9,0,1.7-0.8,1.6-1.8
		c0-0.1,0-0.2,0-0.3c-2.8-12.8-29.1-8.5-39.2-8.6c-1.3,0-1.6,0.6-1,1.7l4.9,9.3C824.6,659.7,825.4,660.1,826.2,660.1z M808.7,659.4
		c0.8-0.2,1.2-1.1,1-1.8c0-0.1,0-0.1-0.1-0.2l-3.6-8.2c-0.3-0.7-0.9-1.1-1.7-1.1l-11-0.2c-1.4,0-2,0.7-1.8,2
		C793.1,659.2,798.8,662.4,808.7,659.4z M342.4,677.1c-15.7,34.7-31.4,69.9-47.2,105.6c-0.2,0.4,0,0.9,0.5,1.1
		c0.1,0,0.2,0.1,0.3,0.1l37.3-0.1c0.9,0,1.6-0.6,1.7-1.5l12.4-104.1c0.2-1.8-0.9-3.4-2.5-3.7c-0.1,0-0.2,0-0.3,0
		C343.9,674.5,343.2,675.3,342.4,677.1z M385,782.5c-0.2,0.4-0.1,1,0.4,1.2c0.1,0.1,0.3,0.1,0.4,0.1l125.6,0.1
		c0.5,0,0.9-0.4,0.9-0.8l8.8-107.2c0-0.5-0.3-0.9-0.8-1c0,0-0.1,0-0.1,0h-76.2c-0.3,0-0.6,0.2-0.8,0.5L385,782.5z M636.8,675.4
		c-3.1-1.3-5.5-1.2-7.1,0.1c-1.1,0.9-1.8,2.8-2.1,5.7c-4,33.6-7.4,67.3-10.1,101.1c-0.1,0.9,0.4,1.4,1.3,1.4h28.9
		c1,0,1.8-0.8,1.8-1.8c0-0.1,0-0.1,0-0.2l-11.8-105.3C637.5,676,637.3,675.6,636.8,675.4z M312.5,855.3c23,2.1,41.4-10.6,40.1-35.1
		c-0.4-8.3-9.6-7.7-14.3-3.1c-10.9,10.8-19.8,23-26.7,36.5c-0.3,0.6-0.1,1.3,0.5,1.6C312.3,855.3,312.4,855.3,312.5,855.3z
		 M743,818.3c0-1.2-1-2.2-2.3-2.2l-17.4,0.2c-1.2,0-2.2,1-2.2,2.3l0,3c0,1.2,1,2.2,2.3,2.2l17.4-0.2c1.2,0,2.2-1,2.2-2.3L743,818.3z
		 M570.2,819.1c0-1.1-0.9-1.9-2-1.9l0,0l-15.8,0.1c-1.1,0-1.9,0.9-1.9,2l0,2.7c0,1.1,0.9,1.9,2,1.9h0l15.8-0.1c1.1,0,1.9-0.9,1.9-2
		L570.2,819.1z M590.4,859.9h66.4c0.8,0,1.2-0.4,1.3-1.1c3-26.1,24.4-29.2,46.5-31c1.1-0.1,1.6-0.7,1.3-1.8l-1.3-6
		c-0.2-1-0.8-1.4-1.8-1.4L590,818.6c-2.6,0-3.7,1.3-3.5,3.8l3.2,36.9C589.7,859.7,590,859.9,590.4,859.9z M301,837.1
		c0.3,0.4,0.9,0.5,1.2,0.2c0.1-0.1,0.1-0.1,0.2-0.2l12-17.1c0.3-0.4,0.2-1-0.2-1.2c-0.1-0.1-0.3-0.2-0.5-0.2h-25
		c-0.5,0-0.9,0.4-0.9,0.9c0,0.2,0.1,0.4,0.2,0.6L301,837.1z M263.7,821c-15.2-1.8-8.8,44.1,27.6,35.7c1.1-0.2,1.8-1.3,1.5-2.4
		c0-0.2-0.1-0.4-0.2-0.6C287.9,845.8,273.1,822.1,263.7,821z M503.3,861.1l68.3-0.4c1.1,0,1.9-0.9,1.9-1.9l0-2.1
		c0-3.6-3.1-6.5-6.9-6.5c0,0,0,0,0,0l-58.5,0.3c-3.8,0-6.8,3-6.8,6.6l0,2.1C501.4,860.2,502.3,861.1,503.3,861.1
		C503.3,861.1,503.3,861.1,503.3,861.1z M675.1,860.9l70.3-0.4c0.8,0,1.4-0.6,1.4-1.4v0l0-2.2c0-3.6-2.9-6.5-6.4-6.5l-60.6,0.3
		c-3.5,0-6.3,3-6.3,6.6c0,0,0,0,0,0l0,2.2C673.6,860.2,674.3,860.9,675.1,860.9z" class="st7"></path>
	<path d="M716.8,189.2c2.2-9.6,7.5-27.9,21.4-23.7c2.5,0.8,4,3.4,3.2,6c-0.3,0.9-0.8,1.7-1.4,2.2l-19.2,16.7
		c-1.5,1.3-1.6,3.6-0.3,5.1c0.4,0.5,1,0.9,1.7,1.1c61.9,18.4,69.9,65,65.5,122.1c0,0.6-0.6,1.1-1.2,1c-0.1,0-0.3,0-0.4-0.1
		c-20.7-9.5-36.7-4.8-48.2,14.1c-1,1.7-3.3,2.3-5,1.2c-0.1-0.1-0.2-0.1-0.3-0.2c-12.1-9.2-12.1-26.4-12.3-40.2
		c0-1.7-1.4-3.1-3.1-3.3l-26.7-1.7c-0.8,0-1.5,0.3-1.9,0.9l-9.6,12.2c-0.5,0.7-1.4,1.2-2.3,1.2l-32.6,1.8c-1,0.1-2-0.2-2.9-0.8
		c-10.2-6.6-2-17.7,2.6-24.5c1.3-1.9,0.8-4.4-1.1-5.7c-0.5-0.3-1-0.5-1.5-0.6c-2.3-0.4-4.6,0.4-6.8,2.5c-8.6,8.2-11.1,18-7.4,29.3
		c0.2,0.5-0.1,1.1-0.6,1.3c-0.1,0-0.2,0-0.3,0.1c-11.1,0.5-22.1,0.8-33,0.7c-18.1-0.1-7-15.5-11.8-22.4c-1.4-2-3.7-2.4-6.8-1.3
		c-0.8,0.3-1.5,0.8-2,1.5c-8.1,11.1-17.3,24.2-30.4,28.3c-11.1,3.5-26.6-6.7-17.2-18.9c3.4-4.4,6.8-9.1,10.2-14.2
		c1.2-1.7,0.7-4.1-1-5.2c-0.2-0.1-0.4-0.3-0.7-0.4c-8.7-3.5-21.5-9.2-11.3-20.7c33.8-37.9,75.6-70,127.4-76.1
		c23.2-2.8,42.8,0.7,62.1,12.8c1.7,1,3.8,0.6,4.9-1.1C716.6,190,716.7,189.6,716.8,189.2z" class="st8"></path>
	<ellipse ry="6.4" rx="5.4" cy="178" cx="263.3" class="st9" transform="matrix(0.5402 -0.8415 0.8415 0.5402 -28.6839 303.4166)"></ellipse>
	<ellipse ry="5.4" rx="7.1" cy="180.6" cx="823.2" class="st9" transform="matrix(0.8572 -0.515 0.515 0.8572 24.574 449.7779)"></ellipse>
	
		<ellipse ry="11.5" rx="5.4" cy="191.9" cx="280.2" class="st9" transform="matrix(0.6481 -0.7615 0.7615 0.6481 -47.5463 280.9448)"></ellipse>
	
		<ellipse ry="5.5" rx="11.9" cy="193.5" cx="804.7" class="st7" transform="matrix(0.8161 -0.5779 0.5779 0.8161 36.1566 500.5776)"></ellipse>
	
		<ellipse ry="6.6" rx="5.4" cy="204.5" cx="245.5" class="st9" transform="matrix(0.3681 -0.9298 0.9298 0.3681 -35.009 357.5276)"></ellipse>
	<ellipse ry="5.4" rx="7" cy="209.8" cx="837.1" class="st9" transform="matrix(0.9265 -0.3762 0.3762 0.9265 -17.4143 330.3673)"></ellipse>
	<path d="M262.1,207.8l10.1,5.4c2.1,1.1,2.9,3.8,1.8,5.9l-0.6,1.2c-1.1,2.1-3.8,2.9-5.9,1.8l-10.1-5.4
		c-2.1-1.1-2.9-3.8-1.8-5.9l0.6-1.2C257.3,207.5,259.9,206.7,262.1,207.8z" class="st9"></path>
	
		<ellipse ry="5.6" rx="11" cy="219.1" cx="817.5" class="st9" transform="matrix(0.9157 -0.4019 0.4019 0.9157 -19.1021 347.0839)"></ellipse>
	<ellipse ry="10.4" rx="5.4" cy="240.3" cx="252.3" class="st9" transform="matrix(0.23 -0.9732 0.9732 0.23 -39.6355 430.599)"></ellipse>
	
		<ellipse ry="5.7" rx="10.9" cy="244.9" cx="828.1" class="st7" transform="matrix(0.9748 -0.2233 0.2233 0.9748 -33.7831 191.0537)"></ellipse>
	<path d="M357.7,292.1c0.7,26.4,33.5,25.9,34.8-0.4c0.1-0.5,0.5-0.8,1-0.8c0.4,0,0.7,0.3,0.8,0.7
		c3.6,25.7,31.4,27.2,36.5,2.9c0.1-0.5,0.6-0.8,1-0.6c0.3,0.1,0.5,0.3,0.6,0.5c1.6,4.4,1.9,8.2,5.2,11.5
		c14.3,14.5,25.9,1.7,31.4-11.9c0.5-1.3,0.9-1.3,1.3,0.1c6.9,28.4,8.7,59.3,10.7,88.4c0.1,0.9-0.2,1.7-0.7,2.4
		c-9.3,11.7-27.9,19-42,22.4c-32.8,8.1-65.1,6.6-96.9-4.5c-11.2-3.9-30.4-13.9-29.9-28c0.7-22.8,2.4-45.6,5.1-68.2
		c0.5-3.9,1.4-7.7,2.7-11.4c0.5-1.5,0.9-1.5,1.2,0.1c4.1,24.4,33.5,20.1,35.3-3c0.1-0.7,0.4-0.9,1-0.7c0.2,0.1,0.5,0.1,0.7,0.2
		C357.7,291.9,357.7,292,357.7,292.1z M353.3,332.5c0.1-3.1-2.4-5.7-5.5-5.8l-0.9,0c-3.1-0.1-5.7,2.4-5.8,5.5l-0.6,18.6
		c-0.1,3.1,2.4,5.7,5.5,5.8l0.9,0c3.1,0.1,5.7-2.4,5.8-5.5L353.3,332.5z M447.8,332.9c0.1-3.1-2.4-5.7-5.5-5.8c0,0,0,0,0,0l-0.9,0
		c-3.1-0.1-5.7,2.4-5.8,5.5c0,0,0,0,0,0l-0.5,18.8c-0.1,3.1,2.4,5.7,5.5,5.8c0,0,0,0,0,0l0.9,0c3.1,0.1,5.7-2.4,5.8-5.5c0,0,0,0,0,0
		L447.8,332.9z M339.2,382.3c6.5-3.7,8.5-12.3,4.6-19.1s-12.4-9.4-18.8-5.6c0,0,0,0,0,0c-6.5,3.7-8.5,12.3-4.6,19.1
		C324.3,383.5,332.7,386,339.2,382.3C339.2,382.3,339.2,382.3,339.2,382.3z M473.8,370.1c0-7.8-6.3-14.1-14.1-14.1
		c-7.8,0-14.1,6.3-14.1,14.1c0,7.8,6.3,14.1,14.1,14.1C467.5,384.3,473.8,377.9,473.8,370.1z M411.5,365.8c-0.7-0.3-1.5-0.1-2.1,0.4
		c-13.3,11.6-18.5,9.8-31.7-0.4c-0.7-0.6-1.7-0.7-2.6-0.3c-2.2,1-3.5,2.7-3.9,5.1c-0.2,1,0.1,2,0.7,2.9
		C392.9,400.7,427.7,371.3,411.5,365.8z" class="st10"></path>
	<path d="M738.1,351.4c9.3,1.2,12.9-12.1,18.8-17.2c22.5-19.2,43,21.3,17,34.9c-10.6,5.6-23.8,0.4-32,8.4
		c-27.2,26.3-59.8,41.1-97.8,44.4c-27.5,2.4-84.8,5.2-90.8-33.3c-3.2-20.4-6.4-40.8-9.6-61.2c-0.1-0.8,0.2-1.4,1-1.7
		c10.6-3.4,19.3-9.6,26.2-18.5c0.4-0.6,1.3-0.7,1.8-0.2c0.1,0.1,0.3,0.2,0.3,0.4c10,18.1,36.9,12.8,58.3,11.1
		c0.8-0.1,1.6-0.4,2.3-0.8c5.2-3.8,10.1-0.5,14.7-0.6c18.6-0.4,35.3,0.9,43.6-12.8c0.6-0.9,1.4-1.4,2.5-1.3l11.4,0.5
		c1,0,1.5,0.5,1.4,1.5C706.8,325.8,714.3,348.4,738.1,351.4z M683,330.6c-0.4-3.2-3.4-5.4-6.6-5c0,0,0,0,0,0l-0.6,0.1
		c-3.2,0.4-5.4,3.4-5,6.6c0,0,0,0,0,0l2.6,19.2c0.4,3.2,3.4,5.4,6.6,5c0,0,0,0,0,0l0.6-0.1c3.2-0.4,5.4-3.4,5-6.6c0,0,0,0,0,0
		L683,330.6z M585.7,342.1c-0.5-3.2-3.6-5.4-6.8-4.9l0,0l-0.6,0.1c-3.2,0.5-5.4,3.6-4.9,6.8l3,18.3c0.5,3.2,3.6,5.4,6.8,4.9l0,0
		l0.6-0.1c3.2-0.5,5.4-3.6,4.9-6.8L585.7,342.1z M713.5,368.2c0-7.7-6.2-13.9-13.9-13.9c-7.7,0-13.9,6.2-13.9,13.9v0
		c0,7.7,6.2,13.9,13.9,13.9c0,0,0,0,0,0C707.3,382.1,713.5,375.9,713.5,368.2z M649.8,367.1c0.7,14.9-12.9,30.8-27.1,17.3
		c-3.3-3.1-4.5-8.1-6.1-12.2c-0.9-2.3-3.5-3.4-5.8-2.5c-1.5,0.6-2.6,2-2.8,3.7c-2.9,34,57.3,36.5,51.1-7.1c-0.1-0.9-0.8-1.5-1.7-1.6
		l-4.9-0.3C650.6,364.3,649.7,365.2,649.8,367.1z M584.9,383.9c0-7.7-6.2-13.9-13.9-13.9c-7.7,0-13.9,6.2-13.9,13.9
		s6.2,13.9,13.9,13.9C578.7,397.7,584.9,391.5,584.9,383.9z" class="st10"></path>
	<path d="M675.9,325.7l0.6-0.1c3.2-0.4,6.1,1.8,6.6,5l2.6,19.2c0.4,3.2-1.8,6.1-5,6.6l-0.6,0.1c-3.2,0.4-6.1-1.8-6.6-5
		l-2.6-19.2C670.5,329.1,672.7,326.1,675.9,325.7z" class="st7"></path>
	<path d="M347,326.6l0.9,0c3.1,0.1,5.6,2.7,5.5,5.8l-0.6,18.6c-0.1,3.1-2.7,5.6-5.8,5.5l-0.9,0
		c-3.1-0.1-5.6-2.7-5.5-5.8l0.6-18.6C341.2,329,343.8,326.5,347,326.6z" class="st7"></path>
	<path d="M441.4,327.1l0.9,0c3.1,0.1,5.5,2.7,5.5,5.8l-0.5,18.8c-0.1,3.1-2.7,5.5-5.8,5.5l-0.9,0
		c-3.1-0.1-5.5-2.7-5.5-5.8l0.5-18.8C435.7,329.5,438.3,327,441.4,327.1z" class="st7"></path>
	<path d="M578.3,337.3l0.6-0.1c3.2-0.5,6.3,1.7,6.8,4.9l3,18.3c0.5,3.2-1.7,6.3-4.9,6.8l-0.6,0.1
		c-3.2,0.5-6.3-1.7-6.8-4.9l-3-18.3C572.9,340.9,575.1,337.9,578.3,337.3z" class="st7"></path>
	<circle r="13.9" cy="368.2" cx="699.6" class="st11"></circle>
	
		<ellipse ry="14.3" rx="13.5" cy="369.9" cx="332" class="st11" transform="matrix(0.8669 -0.4985 0.4985 0.8669 -140.1957 214.7576)"></ellipse>
	<circle r="14.1" cy="370.1" cx="459.7" class="st11"></circle>
	<path d="M649.8,367.1c-0.1-1.9,0.8-2.7,2.7-2.7l4.9,0.3c0.9,0,1.6,0.7,1.7,1.6c6.2,43.5-54,41.1-51.1,7.1
		c0.2-2.4,2.4-4.2,4.8-4c1.6,0.2,3.1,1.2,3.7,2.8c1.6,4.1,2.8,9.1,6.1,12.2C636.9,397.8,650.5,382,649.8,367.1z" class="st7"></path>
	<path d="M411.5,365.8c16.2,5.5-18.7,34.9-39.6,7.7c-0.6-0.8-0.9-1.9-0.7-2.9c0.4-2.4,1.7-4.1,3.9-5.1
		c0.9-0.4,1.9-0.3,2.6,0.3c13.3,10.2,18.4,12,31.7,0.4C410,365.7,410.8,365.6,411.5,365.8z" class="st7"></path>
	<circle r="13.9" cy="383.9" cx="571.1" class="st11"></circle>
	<path d="M250.7,489.7c1.6,18.5,25.9,22.5,31.7,2.3c0.4-1.4,1-1.5,1.6-0.1l2.9,5.7c0.4,0.8,0.4,1.8-0.1,2.5
		c-28.6,48.4-59.1,103.2-79,157.6c-0.3,0.8-0.9,1.3-1.8,1.3c-42.1,1-51.2,2.2-61.8-40.7c-4.5-18.3-6.2-36.9-17-53.7
		c-0.5-0.7-0.7-1.5-0.6-2.4c4-39.8,8.9-79.5,14.4-119.1c9.8-69.3,57.9-63,114-61.9c0.8,0,1.2,0.4,1.1,1.3c-2,25.4-3.7,50.8-5,76.1
		C250.5,474.5,250.3,484.9,250.7,489.7z M204.4,496.7c-5.4-0.2-9.2,2.4-11.5,8c-0.4,0.9-1.4,1.4-2.3,1c-0.4-0.2-0.7-0.4-0.9-0.8
		c-2.1-4-5.2-6.9-9.3-8.7c-0.8-0.4-1.8-0.4-2.6-0.1c-15.4,5.3,4,24.4,9.4,29.7c1.8,1.7,4.6,1.8,6.5,0.3c5.5-4.5,22.3-19.5,15.1-27.3
		C207.7,497.5,206.1,496.8,204.4,496.7z" class="st12"></path>
	<path d="M878.1,622.8c-16.4-13.5-32.6-11.2-51.4-10.9c-0.6,0-1.1-0.5-1.1-1.1c0-0.3,0.1-0.5,0.2-0.7
		c21.4-27.4,16.9-52.9,1.8-84C813,495.7,795.4,467,774.9,440c-11.7-15.4-26.8-25.8-45.3-31.3c-0.7-0.2-0.8-0.5-0.2-1l24.5-19.2
		c0.4-0.3,0.8-0.4,1.3-0.4c9.3,0,18.1-1.7,26.6-4.9c4.2-1.6,8-2.3,11.7-2.3c37,0.3,80.8-6.8,100.3,32.1c3.9,7.8,7.3,23.5,10.3,47.2
		c3.6,28.5,7,56.8,10.2,84.8c0.2,1.9-0.6,3.7-2,4.9c-23.3,18.8-26.7,45-32.2,72.3C879.7,623.4,879,623.6,878.1,622.8z M860.2,592.2
		c5-2.9,22-17.7,16.8-24.1c-6.2-7.7-11.1-1.4-15.4,3.3c-0.5,0.6-1.5,0.6-2.1,0.1c0,0,0,0,0,0c-5.1-5.1-12.9-10.1-15.6,0.9
		c-0.1,0.6-0.1,1.2,0.2,1.7c3.2,7.1,7.9,13.1,14,17.9C858.8,592.6,859.5,592.7,860.2,592.2z" class="st12"></path>
	<path d="M531.9,617.3l-26.7-4.1c-0.8-0.1-1.1-0.6-0.8-1.4c21.1-50.1,43-96.2,65.7-138.3c12.2-22.6,27.6-40,55.6-35
		c0.9,0.2,1.5,0.6,1.9,1.4c18.1,38.6,70,28,74.1-13.2c0.1-1.2,1-2.2,2.3-2.5c28.8-5.7,47.2,8.7,63.3,30.9
		c19.6,27.2,36.6,56,50.8,86.5c10.6,22.6,10.3,47.7-10.5,63.1c-11.5,8.5-32.4,7.2-46,5.8c-0.9-0.1-1.6-0.4-2.3-1l-25.8-21.8
		c-0.8-0.6-1.2-1.4-1.4-2.4l-9.7-41.1c-0.2-0.8,0.1-1.3,0.9-1.5c18.4-3.9,40.6-5.9,58.2,1.6c2.6,1.1,5.7-0.1,6.8-2.7
		c0.4-0.9,0.5-2,0.3-3c-1.9-9.9-18.1-13.1-26.3-13.5c-49.5-2.3-105.4,15.9-140.3,52.5c-0.6,0.6-1.2,0.7-1.9,0.3
		c-11.6-5.9-24-8.3-37.1-7.2c-0.8,0.1-1.5-0.5-1.6-1.3c0-0.1,0-0.2,0-0.2l2.7-34c0.1-0.9-0.3-1.8-0.9-2.4c-2.3-2.2-4.9-2.7-7.7-1.5
		c-0.9,0.4-1.4,1-1.5,2l-3.4,39.1c-0.1,0.8-0.5,1.4-1.3,1.7c-18.6,8-30.4,22-35.4,41.8C533.8,616.8,532.9,617.4,531.9,617.3z
		 M584.6,519.4c0-3-2.4-5.4-5.4-5.4c-3,0-5.4,2.4-5.4,5.4c0,3,2.4,5.4,5.4,5.4C582.2,524.8,584.6,522.4,584.6,519.4z" class="st10"></path>
	<path d="M559.1,461.3c-0.2,0.3-0.6,0.5-1,0.3c-0.2-0.1-0.4-0.4-0.4-0.6l-0.9-35.4c0-1.6,0.6-1.9,1.9-1.1
		c6.4,4,13.3,6.9,20.6,8.7c1.3,0.3,1.4,0.9,0.4,1.7C571.3,442.5,564.4,451.3,559.1,461.3z" class="st12"></path>
	<path d="M390.1,440.7c-0.4-0.1-0.6-0.6-0.4-0.9c0.1-0.3,0.3-0.4,0.6-0.5c9.9-0.6,18.9-3.6,27.1-9.1
		c0.5-0.3,1.1-0.2,1.5,0.3c0.1,0.1,0.1,0.3,0.2,0.4l1.7,8.2c0.2,0.9-0.3,1.7-1.2,2C409.6,444.3,399.8,444.2,390.1,440.7z" class="st10"></path>
	<path d="M685.1,431.8c-2.4,15-20.8,19.5-32.5,14.6c-1.6-0.7-1.6-1.2,0.1-1.7c11.1-2.9,21.4-7.5,30.9-13.9
		C684.8,430.1,685.3,430.4,685.1,431.8z" class="st10"></path>
	<path d="M490,508.9h5.4c1.1,0,2,0.7,2.3,1.7c3.3,9.6,15.4,42.7,11.7,50.9c-8.9,19.8-17.6,39.8-26,59.8
		c-0.3,0.8-0.7,0.8-1.2,0.1l-15.9-21.9c-0.6-0.8-0.8-1.7-0.8-2.7l3.2-57.8c0.1-0.8-0.2-1.6-0.6-2.2c-2-2.9-4.7-3.4-8.1-1.5
		c-0.9,0.5-1.3,1.2-1.4,2.3l-3.1,49.9c-0.1,1.6-0.8,1.9-2.1,1c-24.9-17.9-49.5-17.6-73.7,1c-0.8,0.6-1.6,0.6-2.4-0.1
		c-15.4-14-33.6-20.3-54.7-18.7c-0.7,0.1-1.4-0.5-1.4-1.2c0-0.1,0-0.2,0-0.3l4-31.9c0.1-0.6,0-1.2-0.4-1.8c-1.9-3.1-4.4-3.8-7.5-2
		c-0.8,0.4-1.2,1-1.4,1.9l-5.9,36.3c-0.2,0.9-0.7,1.5-1.5,1.9c-19.7,7.4-34,20.6-43,39.6c-0.3,0.7-1,1.1-1.7,1l-20-0.4
		c-0.7,0-0.9-0.3-0.6-1c25.8-53.7,53.4-101.9,82.8-144.4c9.1-13.2,22.3-21.3,39.6-24.1c0.9-0.1,1.7,0.1,2.4,0.6
		c23.4,18.8,47.3,19.1,71.7,1c0.9-0.7,1.9-0.9,3-0.6c15.7,3.5,28.1,11.9,37.2,25.1c0.5,0.8,0.8,1.8,0.9,2.8c0.1,13-3.2,26.7,6.9,35
		C488.4,508.6,489.2,508.9,490,508.9z M437.4,474.5c1.5-2.1,1-5-1.1-6.5l-0.5-0.4c-2.1-1.5-5-1-6.5,1.1l-31.4,43.9
		c-1.5,2.1-1,5,1.1,6.5l0.5,0.4c2.1,1.5,5,1,6.5-1.1L437.4,474.5z M327.1,521.9c0-3-2.4-5.4-5.4-5.4h0c-3,0-5.4,2.4-5.4,5.4
		c0,3,2.4,5.4,5.4,5.4C324.6,527.4,327.1,524.9,327.1,521.9z M469.3,522.8c0-3.1-2.5-5.6-5.6-5.6c-3.1,0-5.6,2.5-5.6,5.6
		c0,3.1,2.5,5.6,5.6,5.6h0C466.8,528.4,469.3,525.9,469.3,522.8L469.3,522.8z" class="st10"></path>
	<path d="M435.9,467.6l0.5,0.4c2.1,1.5,2.6,4.4,1.1,6.5L406,518.4c-1.5,2.1-4.4,2.6-6.5,1.1l-0.5-0.4
		c-2.1-1.5-2.6-4.4-1.1-6.5l31.4-43.9C430.9,466.6,433.8,466.1,435.9,467.6z" class="st7"></path>
	<path d="M204.4,496.7c1.7,0.1,3.3,0.8,4.4,2c7.2,7.8-9.6,22.8-15.1,27.3c-1.9,1.6-4.7,1.4-6.5-0.3
		c-5.5-5.3-24.8-24.4-9.4-29.7c0.9-0.3,1.8-0.2,2.6,0.1c4.1,1.8,7.2,4.7,9.3,8.7c0.5,0.9,1.6,1.2,2.4,0.7c0.4-0.2,0.7-0.5,0.8-0.9
		C195.2,499.1,199,496.4,204.4,496.7z" class="st7"></path>
	<path d="M534.7,498.1c0.4-1.6,1.3-1.5,2.8,0.3c0.4,0.5,0.5,1.2,0.2,1.9l-14.9,32.3c-0.6,1.3-1.1,1.2-1.5-0.1l-8-26.5
		c-0.1-0.4,0.1-0.9,0.5-1c0.2-0.1,0.4,0,0.5,0C521,507.6,532.8,506.3,534.7,498.1z" class="st12"></path>
	<circle r="5.4" cy="519.4" cx="579.2" class="st9"></circle>
	<circle r="5.4" cy="521.9" cx="321.6" class="st9"></circle>
	<circle r="5.6" cy="522.8" cx="463.7" class="st9"></circle>
	<path d="M705.9,574.4l-6.8-24.1c-0.2-0.6,0.2-1.2,0.8-1.4l11-3.5c0.6-0.2,1.3,0.1,1.5,0.7c0,0,0,0,0,0.1l8,32.1
		c0.2,0.6-0.2,1.2-0.8,1.4c-0.2,0.1-0.5,0-0.7,0l-12.2-4.5C706.3,575.1,706,574.8,705.9,574.4z" class="st10"></path>
	<path d="M694.9,570.6c0.3,1-0.3,2-1.3,2.3l-0.4,0.1c-6.1,1.8-11.8,1-12.7-1.9l-2.8-9.4c-0.9-2.9,3.4-6.7,9.5-8.5
		c0,0,0,0,0,0l0.4-0.1c1-0.3,2.1,0.3,2.4,1.3c0,0,0,0,0,0L694.9,570.6z" class="st10"></path>
	<path d="M118.8,783.6c-34.9-0.6-42.5-25.9-47.5-54.1c-7.6-42.9-14.8-85.9-21.7-129c-9-55.8,60.6-59.3,72.5-9.6
		c6.9,28.8,11.6,83.6,52.6,83.8c25.2,0.2,49.8,0.2,73.6,0.1c2.1,0,3.1,1,2.9,3.1L242,782.6c-0.1,0.8-0.5,1.3-1.4,1.3l-43.3-0.1
		c-1,0-1.6-0.5-1.7-1.6c-0.5-5.7,2.4-15.4-6.4-15.7c-2.2-0.1-4.1,1.6-4.3,3.8l-0.9,12c-0.1,0.8-0.7,1.4-1.5,1.4h-6.8
		c-1,0-1.8-0.8-1.8-1.8c-0.2-4.5,1.3-12.2-3.4-14.7c-1.8-0.9-3.4-0.7-5,0.7c-2.5,2.2-3.4,6-2.7,11.2c0.4,2.9-0.9,4.4-3.9,4.5
		C146.4,783.9,133,783.9,118.8,783.6z" class="st12"></path>
	<path d="M966,564.5c15.2,14,11.4,29.9,7.5,52.1c-11.3,64.3-19.1,107.7-23.6,130.3c-6.3,32.2-28.8,37-59.2,37
		c-44.5,0-89.1,0-133.8,0c-0.7,0-1.2-0.5-1.3-1.1l-14-105.4c-0.2-1.1,0.7-2.2,1.8-2.4c0.1,0,0.2,0,0.3,0c30.9-0.1,62-0.1,93.5,0
		c26.4,0.1,46.3-4.6,53.1-31.6c4.3-17,8.5-34,12.5-51.1C909.2,565.6,941.6,541.9,966,564.5z" class="st12"></path>
	<path d="M858.1,592.1c-6.1-4.8-10.8-10.8-14-17.9c-0.2-0.5-0.3-1.2-0.2-1.7c2.7-11,10.5-6.1,15.6-0.9
		c0.6,0.6,1.5,0.6,2.1,0c0,0,0,0,0,0c4.3-4.7,9.2-11,15.4-3.3c5.2,6.4-11.8,21.2-16.8,24.1C859.5,592.7,858.8,592.6,858.1,592.1z" class="st7"></path>
	<path d="M634.3,587c-0.4-0.5-0.3-1.1,0.1-1.5c0,0,0,0,0,0l18.4-15c3.3-2.7,7.3-3.1,9.1-1l0.9,1.1
		c1.7,2.1,0.5,6-2.8,8.7c0,0,0,0,0,0l-18.4,15c-0.5,0.4-1.1,0.3-1.5-0.1c0,0,0,0,0,0L634.3,587z" class="st10"></path>
	<path d="M261.3,790.6c-1.7-0.9-2.8-2.7-2.8-4.7c0.1-41,5.2-82.9,11.2-126.1c2.5-18.5,7.2-39.2,17.8-53.4
		c19.4-25.9,56.5-27.6,80-5c0.6,0.5,0.7,1.2,0.3,1.9c-7.6,15.6-12.9,33.1-15.9,52.5c-0.2,1.4-1,2.4-2.4,2.9c-0.7,0.3-1,0-0.9-0.8
		l2.1-13c0.5-2.6-1.3-5.2-4-5.6c-2-0.3-4,0.6-5,2.4c-1.6,2.7-3.1,5.9-4.8,9.8c-18.9,44.3-38.7,88.2-59.4,131.7
		C274,790.8,269.5,794.8,261.3,790.6z" class="st8"></path>
	<path d="M362.1,789.1c-7,1.4-12.2-5.4-11.5-11.9c5-46.7,10.1-95.3,20.3-141.1c9.4-42.4,51.8-64,83.6-26
		c8,9.6,14.7,20,20.1,31.3c0.3,0.5,0.3,1.1,0.1,1.6l-5.4,15.1c-0.4,1-1.3,1.7-2.4,1.7h-13.6c-0.9,0-1.7-0.8-1.7-1.7
		c0-0.4,0.1-0.7,0.3-1c2.6-3.5,3.7-7.4,3.1-11.7c-0.4-2.8-2.9-4.9-5.8-4.5c-1,0.1-2,0.5-2.7,1.2c-2.3,1.9-4.5,4.9-6.7,8.8
		c-25.2,45.6-50.5,91.2-75.7,136.7C363.8,788.4,363,788.9,362.1,789.1z" class="st8"></path>
	<path d="M499.2,621.5l30.1,5.3c0.4,0.1,0.6,0.4,0.6,0.8l-2.1,11.9c-0.1,0.4-0.4,0.6-0.8,0.6l-30.1-5.3
		c-0.4-0.1-0.6-0.4-0.6-0.8l2.1-11.9C498.5,621.7,498.9,621.4,499.2,621.5z" class="st10"></path>
	<path d="M238.4,624.4l21.2,0c0.4,0,0.8,0.4,0.8,0.8c0,0.1,0,0.1,0,0.2l-2.5,10.2c-0.1,0.4-0.4,0.6-0.8,0.6l-22.9,0.1
		c-0.4,0-0.8-0.4-0.8-0.8c0-0.1,0-0.2,0.1-0.3l4.1-10.3C237.8,624.6,238,624.4,238.4,624.4z" class="st10"></path>
	<path d="M787.1,635.1c-7.3-0.2-9.8-2.9-12.8-9c-0.4-0.8-0.1-1.2,0.8-1.2c27.1,0.2,46.4,0.2,58.1-0.1
		c9.9-0.3,21.4-1,29.8,3.1c6.2,3.1,17.1,13.4,8.2,19.8c-0.6,0.5-1.2,0.4-1.7-0.2c-6.3-8.2-14.9-12.3-25.6-12.1
		C824.9,635.7,806,635.6,787.1,635.1z" class="st10"></path>
	<path d="M525.3,649.5l-1.4,9.5c-0.1,0.4-0.4,0.7-0.8,0.7h-36.8c-0.5,0-0.8-0.4-0.8-0.8c0-0.1,0-0.2,0.1-0.3l5.4-14.2
		c0.1-0.4,0.5-0.6,0.9-0.5l32.9,4.7C525,648.6,525.3,649.1,525.3,649.5C525.3,649.5,525.3,649.5,525.3,649.5z" class="st10"></path>
	<path d="M227.8,659.9c-1.8,0-3.3-1.4-3.3-3.3c0,0,0,0,0,0v-0.3c0-6,2.4-10.9,5.4-11l20.4-0.2c3,0,5.5,4.9,5.6,10.9
		c0,0,0,0,0,0v0.3c0,1.8-1.4,3.3-3.3,3.3c0,0,0,0,0,0L227.8,659.9z" class="st10"></path>
	<path d="M824.2,658.9l-4.9-9.3c-0.6-1.1-0.2-1.7,1-1.7c10.1,0.1,36.4-4.2,39.2,8.6c0.2,0.9-0.4,1.9-1.3,2.1
		c-0.1,0-0.2,0-0.3,0l-31.7,1.5C825.4,660.1,824.6,659.7,824.2,658.9z" class="st8"></path>
	<path d="M808.7,659.4c-10,3-15.7-0.2-17.1-9.5c-0.2-1.4,0.4-2,1.8-2l11,0.2c0.8,0,1.3,0.4,1.7,1.1l3.6,8.2
		c0.3,0.7,0,1.6-0.8,1.9C808.9,659.4,808.8,659.4,808.7,659.4z" class="st12"></path>
	<path d="M342.4,677.1c0.8-1.7,1.5-2.6,2.2-2.6c1.6,0,2.8,1.5,2.8,3.4c0,0.1,0,0.2,0,0.3L335,782.3
		c-0.1,0.8-0.8,1.5-1.7,1.5l-37.3,0.1c-0.5,0-0.9-0.4-0.9-0.9c0-0.1,0-0.2,0.1-0.3C311,747,326.7,711.8,342.4,677.1z" class="st12"></path>
	<path d="M385,782.5l58.1-107.1c0.2-0.3,0.5-0.5,0.8-0.5h76.2c0.5,0,0.9,0.4,0.9,0.9c0,0,0,0.1,0,0.1L512.3,783
		c0,0.5-0.4,0.8-0.9,0.8l-125.6-0.1c-0.5,0-0.9-0.4-0.9-0.9C384.9,782.7,385,782.6,385,782.5z" class="st12"></path>
	<path d="M636.8,675.4c0.5,0.2,0.8,0.6,0.8,1.1l11.8,105.3c0.1,1-0.6,1.9-1.6,2c-0.1,0-0.1,0-0.2,0h-28.9
		c-0.9,0-1.4-0.5-1.3-1.4c2.7-33.8,6.1-67.5,10.1-101.1c0.3-3,1.1-4.9,2.1-5.7C631.3,674.2,633.7,674.2,636.8,675.4z" class="st12"></path>
	<path d="M312.5,855.3c-0.6-0.1-1.1-0.6-1-1.3c0-0.1,0.1-0.3,0.1-0.4c6.9-13.5,15.8-25.7,26.7-36.5
		c4.7-4.6,13.9-5.2,14.3,3.1C353.9,844.7,335.5,857.4,312.5,855.3z" class="st10"></path>
	<path d="M723.3,816.4l17.4-0.2c1.2,0,2.3,1,2.3,2.2l0,3c0,1.2-1,2.3-2.2,2.3l-17.4,0.2c-1.2,0-2.3-1-2.3-2.2l0-3
		C721.1,817.4,722.1,816.4,723.3,816.4z" class="st10"></path>
	<path d="M552.4,817.3l15.8-0.1c1.1,0,1.9,0.9,2,1.9l0,2.7c0,1.1-0.9,1.9-1.9,2l-15.8,0.1c-1.1,0-1.9-0.9-2-1.9l0-2.7
		C550.5,818.2,551.4,817.3,552.4,817.3z" class="st10"></path>
	<path d="M590.4,859.9c-0.4,0-0.7-0.2-0.7-0.7l-3.2-36.9c-0.2-2.5,0.9-3.8,3.5-3.8l112.8-0.1c1,0,1.6,0.5,1.8,1.4
		l1.3,6c0.2,1.1-0.2,1.7-1.3,1.8c-22.1,1.8-43.5,4.9-46.5,31c-0.1,0.8-0.5,1.1-1.3,1.1H590.4z" class="st11"></path>
	<path d="M301,837.1L288,820c-0.3-0.4-0.2-0.9,0.2-1.3c0.2-0.1,0.4-0.2,0.6-0.2h25c0.5,0,0.9,0.4,0.9,0.9
		c0,0.2-0.1,0.4-0.2,0.5l-12,17.1c-0.3,0.4-0.8,0.5-1.2,0.2C301.1,837.2,301.1,837.2,301,837.1z" class="st11"></path>
	<path d="M291.3,856.7c-36.4,8.4-42.8-37.4-27.6-35.7c9.3,1.1,24.2,24.8,28.9,32.7c0.6,1,0.3,2.2-0.7,2.8
		C291.7,856.6,291.5,856.7,291.3,856.7z" class="st10"></path>
	<path d="M503.3,861.1c-1.1,0-1.9-0.9-1.9-1.9l0,0l0-2.1c0-3.6,3-6.5,6.8-6.6l58.5-0.3c3.8,0,6.9,2.9,6.9,6.5
		c0,0,0,0,0,0l0,2.1c0,1.1-0.9,1.9-1.9,1.9L503.3,861.1z" class="st10"></path>
	<path d="M675.1,860.9c-0.8,0-1.4-0.6-1.4-1.4l0-2.2c0-3.6,2.8-6.5,6.3-6.6c0,0,0,0,0,0l60.6-0.3
		c3.5,0,6.3,2.9,6.4,6.5l0,2.2c0,0.8-0.6,1.4-1.4,1.4h0L675.1,860.9z" class="st10"></path>
	<circle r="6.4" cy="867.2" cx="469.2" class="st9"></circle>
	<circle r="6.4" cy="867.5" cx="160.5" class="st9"></circle>
	<circle r="6.1" cy="867.6" cx="184.9" class="st9"></circle>
	<circle r="6.2" cy="867.5" cx="414.3" class="st9"></circle>
	<circle r="6.2" cy="867.4" cx="444.7" class="st9"></circle>
	<circle r="6.4" cy="867.5" cx="813.9" class="st9"></circle>
	<circle r="6.2" cy="867.4" cx="838.1" class="st7"></circle>
	<circle r="6.3" cy="867.5" cx="862.3" class="st9"></circle>
</g>
</svg>
